<svg width="97" height="97" viewBox="0 0 97 97" fill="none" xmlns="http://www.w3.org/2000/svg">
<g filter="url(#filter0_d)">
<circle cx="48.5" cy="48.5" r="38.5" fill="#DEDEDE"/>
</g>
<path d="M59.7084 47.0417H50.9584V38.2917C50.9584 37.9049 50.8047 37.534 50.5312 37.2605C50.2577 36.987 49.8868 36.8333 49.5 36.8333C49.1133 36.8333 48.7423 36.987 48.4688 37.2605C48.1954 37.534 48.0417 37.9049 48.0417 38.2917V47.0417H39.2917C38.9049 47.0417 38.534 47.1953 38.2605 47.4688C37.987 47.7423 37.8334 48.1132 37.8334 48.5C37.8334 48.8868 37.987 49.2577 38.2605 49.5312C38.534 49.8047 38.9049 49.9583 39.2917 49.9583H48.0417V58.7083C48.0417 59.0951 48.1954 59.4661 48.4688 59.7395C48.7423 60.013 49.1133 60.1667 49.5 60.1667C49.8868 60.1667 50.2577 60.013 50.5312 59.7395C50.8047 59.4661 50.9584 59.0951 50.9584 58.7083V49.9583H59.7084C60.0951 49.9583 60.4661 49.8047 60.7396 49.5312C61.0131 49.2577 61.1667 48.8868 61.1667 48.5C61.1667 48.1132 61.0131 47.7423 60.7396 47.4688C60.4661 47.1953 60.0951 47.0417 59.7084 47.0417Z" fill="#A0A0A0"/>
<defs>
<filter id="filter0_d" x="0" y="0" width="97" height="97" filterUnits="userSpaceOnUse" color-interpolation-filters="sRGB">
<feFlood flood-opacity="0" result="BackgroundImageFix"/>
<feColorMatrix in="SourceAlpha" type="matrix" values="0 0 0 0 0 0 0 0 0 0 0 0 0 0 0 0 0 0 127 0" result="hardAlpha"/>
<feOffset/>
<feGaussianBlur stdDeviation="5"/>
<feComposite in2="hardAlpha" operator="out"/>
<feColorMatrix type="matrix" values="0 0 0 0 0 0 0 0 0 0 0 0 0 0 0 0 0 0 0.1 0"/>
<feBlend mode="normal" in2="BackgroundImageFix" result="effect1_dropShadow"/>
<feBlend mode="normal" in="SourceGraphic" in2="effect1_dropShadow" result="shape"/>
</filter>
</defs>
</svg>
