<svg width="52" height="52" viewBox="0 0 52 52" fill="none" xmlns="http://www.w3.org/2000/svg">
<circle cx="26" cy="26" r="26" fill="#E1F7FF"/>
<path d="M37.3183 33.4205H14.6818C13.7061 33.4205 12.915 32.6295 12.915 31.6537V31.3059C12.915 30.3301 13.706 29.5391 14.6818 29.5391H37.3182C38.294 29.5391 39.085 30.3301 39.085 31.3059V31.6537C39.085 32.6295 38.294 33.4205 37.3183 33.4205V33.4205Z" fill="#CB3A31"/>
<path d="M37.3183 26.4824H14.6818C13.7061 26.4824 12.915 25.6914 12.915 24.7156V24.3678C12.915 23.392 13.706 22.601 14.6818 22.601H37.3182C38.294 22.601 39.085 23.3919 39.085 24.3678V24.7156C39.085 25.6914 38.294 26.4824 37.3183 26.4824V26.4824Z" fill="#A75D30"/>
<path d="M25.9999 12.9548C17.1757 13.0826 14.2109 17.8693 13.2321 20.6505C12.8968 21.6035 13.6118 22.6009 14.6221 22.6009H25.9999H37.3777C38.3954 22.6009 39.1013 21.5935 38.7619 20.6339C37.7772 17.8503 34.8067 13.0823 25.9999 12.9548V12.9548Z" fill="#FAB371"/>
<path d="M37.3181 33.4205H25.9999H14.6817C14.6817 33.4205 13.9011 37.19 18.3433 38.6729C19.1043 38.9269 19.8987 39.0452 20.6954 39.0452H25.9999H31.3044C32.1011 39.0452 32.8955 38.9269 33.6565 38.6729C38.0988 37.19 37.3181 33.4205 37.3181 33.4205Z" fill="#FAB371"/>
<path d="M37.3594 30.2428C37.3594 31.1248 36.3345 31.6031 35.653 31.043C35.3729 30.8127 35.0421 30.6303 34.5178 30.6303C33.0972 30.6303 33.0972 31.7557 31.6765 31.7557C30.2558 31.7557 30.2558 30.6303 28.8352 30.6303C27.4146 30.6303 27.4146 31.7557 25.9939 31.7557C24.5733 31.7557 24.5733 30.6303 23.1528 30.6303C21.7321 30.6303 21.7321 31.7557 20.3114 31.7557C18.8908 31.7557 18.8908 30.6303 17.4702 30.6303C16.9461 30.6303 16.6154 30.8127 16.3354 31.0428C15.6538 31.6028 14.6289 31.1247 14.6289 30.2426V28.155H37.3595V30.2428H37.3594Z" fill="#AFF939"/>
<path d="M14.6406 26.4823V28.1705H17.0775C17.5844 28.1705 17.9954 28.5815 17.9954 29.0884V33.9507C17.9954 34.5988 18.5207 35.1242 19.1689 35.1242C19.817 35.1242 20.3424 34.5988 20.3424 33.9507V29.0884C20.3424 28.5815 20.7534 28.1705 21.2603 28.1705H37.3598V26.4823H14.6406Z" fill="#FDE35B"/>
<path d="M22.3584 17.0139C22.4987 17.0139 22.6347 16.9389 22.7061 16.8067L23.0485 16.173C23.1522 15.9812 23.0808 15.7417 22.8889 15.638C22.697 15.5343 22.4575 15.6059 22.3539 15.7976L22.0114 16.4313C21.9078 16.6231 21.9792 16.8627 22.171 16.9663C22.2307 16.9986 22.2949 17.0139 22.3584 17.0139Z" fill="#363636"/>
<path d="M26.3902 16.6624V15.9421C26.3902 15.724 26.2134 15.5472 25.9954 15.5472C25.7774 15.5472 25.6006 15.724 25.6006 15.9421V16.6624C25.6006 16.8804 25.7774 17.0572 25.9954 17.0572C26.2134 17.0572 26.3902 16.8804 26.3902 16.6624Z" fill="#363636"/>
<path d="M29.6424 17.0087C29.7096 17.0087 29.7777 16.9915 29.8401 16.9553C30.0287 16.8459 30.0929 16.6043 29.9835 16.4157L29.6221 15.7926C29.5127 15.604 29.2711 15.5398 29.0825 15.6492C28.8939 15.7586 28.8297 16.0002 28.9391 16.1888L29.3005 16.8119C29.3737 16.9381 29.5062 17.0087 29.6424 17.0087V17.0087Z" fill="#363636"/>
<path d="M39.4801 24.7155V24.3677C39.4801 23.6303 39.1086 22.9782 38.5433 22.5879C38.6763 22.4805 38.7963 22.3539 38.899 22.2087C39.2492 21.7134 39.3372 21.0755 39.1344 20.5023C38.6447 19.118 37.627 17.1245 35.5595 15.4887C33.1756 13.6027 29.9614 12.6173 26.006 12.5601C26.0022 12.56 25.9983 12.56 25.9945 12.5601C24.2068 12.586 22.5508 12.8047 21.0724 13.2102C20.8621 13.2678 20.7384 13.4851 20.796 13.6953C20.8537 13.9056 21.0709 14.0294 21.2812 13.9717C22.6937 13.5842 24.2814 13.375 26.0002 13.3497C34.5417 13.4756 37.4292 18.0497 38.3899 20.7656C38.5091 21.1024 38.4596 21.4622 38.2542 21.7528C38.0505 22.0409 37.7311 22.2061 37.3779 22.2061H14.6225C14.2679 22.2061 13.9468 22.04 13.7416 21.7501C13.5389 21.4639 13.4891 21.1108 13.6049 20.7816C14.3053 18.7914 15.9136 16.0946 19.5984 14.5493C19.7995 14.465 19.8942 14.2336 19.8098 14.0326C19.7254 13.8314 19.494 13.7369 19.293 13.8211C17.4989 14.5736 15.9976 15.6607 14.8309 17.0523C13.9725 18.0762 13.3094 19.2427 12.8601 20.5195C12.6581 21.0935 12.7445 21.7084 13.0973 22.2065C13.2 22.3516 13.3222 22.4789 13.4582 22.5873C12.8923 22.9775 12.5205 23.6299 12.5205 24.3677V24.7155C12.5205 25.7581 13.2624 26.6305 14.2459 26.8329L14.238 29.1906C13.2585 29.396 12.5205 30.2662 12.5205 31.3058V31.6537C12.5205 32.6956 13.2616 33.5676 14.2443 33.7706C14.2178 34.1861 14.2314 34.8604 14.471 35.6107C15.1167 37.6326 16.8654 38.5956 18.2187 39.0473C18.9991 39.3078 19.8325 39.4399 20.6958 39.4399H31.3048C32.1681 39.4399 33.0015 39.3078 33.7819 39.0473C35.1352 38.5955 36.8839 37.6326 37.5296 35.6107C37.7692 34.8605 37.7828 34.1861 37.7563 33.7706C38.739 33.5677 39.4801 32.6956 39.4801 31.6537V31.3058C39.4801 30.2634 38.7381 29.3917 37.7547 29.1894V26.8329C38.7382 26.6306 39.4801 25.7581 39.4801 24.7155V24.7155ZM13.3101 31.6537V31.3058C13.3101 30.7059 13.6977 30.1958 14.2353 30.0099L14.2345 30.2426C14.2345 30.803 14.5488 31.2997 15.0547 31.5388C15.5635 31.7793 16.1505 31.7061 16.5864 31.3478C16.7903 31.1802 17.0386 31.0251 17.4706 31.0251C17.516 31.0251 17.5588 31.027 17.6006 31.0296V33.0257H14.6821C13.9256 33.0257 13.3101 32.4102 13.3101 31.6537ZM29.0431 28.5654H36.9651V30.2428C36.9651 30.4985 36.8275 30.7162 36.5971 30.825C36.3638 30.9353 36.1047 30.9028 35.9042 30.7379C35.6195 30.504 35.2048 30.2355 34.5182 30.2355C33.6705 30.2355 33.2359 30.5797 32.8525 30.8835C32.5158 31.1502 32.2498 31.3608 31.677 31.3608C31.104 31.3608 30.8381 31.1502 30.5014 30.8835C30.118 30.5798 29.6834 30.2355 28.8356 30.2355C27.9879 30.2355 27.5343 30.5948 27.1698 30.8835C26.8331 31.1502 26.5672 31.3608 25.9944 31.3608C25.4215 31.3608 25.1556 31.1502 24.819 30.8835C24.4545 30.5948 24.0009 30.2355 23.1532 30.2355C22.3055 30.2355 21.8709 30.5797 21.4874 30.8835C21.2474 31.0736 21.0424 31.2345 20.7373 31.3115V29.0885C20.7373 28.8 20.972 28.5654 21.2604 28.5654H27.1918C27.4099 28.5654 27.5866 28.3886 27.5866 28.1706C27.5866 27.9525 27.4099 27.7758 27.1918 27.7758H21.2604C20.5365 27.7758 19.9477 28.3646 19.9477 29.0885V33.9507C19.9477 34.3801 19.5983 34.7295 19.1689 34.7295C18.7395 34.7295 18.3902 34.3801 18.3902 33.9507V29.0885C18.3902 28.3646 17.8013 27.7758 17.0775 27.7758H15.0355V26.8771H36.9651V27.7758H29.0431C28.8251 27.7758 28.6483 27.9525 28.6483 28.1706C28.6483 28.3886 28.8251 28.5654 29.0431 28.5654V28.5654ZM17.0775 28.5654C17.3659 28.5654 17.6006 28.8 17.6006 29.0885V30.2388C17.5583 30.2368 17.5153 30.2355 17.4706 30.2355C16.7843 30.2355 16.3696 30.5038 16.0851 30.7377C15.8844 30.9025 15.6254 30.9351 15.392 30.8248C15.1616 30.7159 15.0241 30.4983 15.0241 30.2426V28.5654H17.0775ZM36.7774 35.3705C36.34 36.7404 35.248 37.7255 33.5318 38.2983C32.8322 38.5319 32.0829 38.6503 31.3048 38.6503H20.6958C19.9176 38.6503 19.1684 38.5319 18.4687 38.2983C15.1069 37.1761 14.9661 34.6972 15.0299 33.8152H17.6006V33.9507C17.6006 34.8155 18.3042 35.5191 19.169 35.5191C20.0338 35.5191 20.7373 34.8155 20.7373 33.9507V33.8152H36.9687C36.9909 34.1525 36.9829 34.7269 36.7774 35.3705ZM38.6904 31.3058V31.6537C38.6904 32.4102 38.075 33.0257 37.3185 33.0257H20.7373V32.1175C21.3162 32.0251 21.6644 31.7506 21.9776 31.5024C22.3143 31.2357 22.5803 31.0251 23.1532 31.0251C23.726 31.0251 23.992 31.2357 24.3286 31.5024C24.6931 31.7912 25.1466 32.1505 25.9943 32.1505C26.842 32.1505 27.2767 31.8062 27.6601 31.5024C27.9968 31.2357 28.2627 31.0251 28.8356 31.0251C29.4085 31.0251 29.6744 31.2357 30.0111 31.5024C30.3945 31.8062 30.8292 32.1505 31.6769 32.1505C32.5247 32.1505 32.9593 31.8062 33.3427 31.5024C33.6794 31.2357 33.9453 31.0251 34.5182 31.0251C34.9503 31.0251 35.1987 31.1803 35.4027 31.3481C35.8386 31.7063 36.4256 31.7795 36.9344 31.539C37.4404 31.3 37.7547 30.8033 37.7547 30.2428V30.0055C38.298 30.1881 38.6904 30.7018 38.6904 31.3058V31.3058ZM37.3185 26.0875H14.6821C13.9256 26.0875 13.3101 25.472 13.3101 24.7155V24.3677C13.3101 23.6112 13.9256 22.9957 14.6821 22.9957H37.3185C38.075 22.9957 38.6904 23.6112 38.6904 24.3677V24.7155C38.6904 25.472 38.075 26.0875 37.3185 26.0875V26.0875Z" fill="#363636"/>
</svg>
