<svg width="52" height="52" viewBox="0 0 52 52" fill="none" xmlns="http://www.w3.org/2000/svg">
<circle cx="26" cy="26" r="26" fill="#E1F7FF"/>
<path fill-rule="evenodd" clip-rule="evenodd" d="M35.3531 30.6226H18.7984H16.0033C14.2274 30.6226 12.7783 32.0716 12.7783 33.8475V35.9975C12.7783 37.7733 14.2274 39.2224 16.0033 39.2224H35.3531C35.9468 39.2224 36.428 38.7412 36.428 38.1474C36.428 37.5537 35.9468 37.0724 35.3531 37.0724H21.9494V38.6849L20.7401 38.1475L19.5307 38.6849V37.0724H16.0033C15.4142 37.0724 14.9283 36.5866 14.9283 35.9975V34.9225V33.8476C14.9283 33.2585 15.4142 32.7726 16.0033 32.7726H35.3531C35.9468 32.7726 36.428 32.2913 36.428 31.6976C36.428 31.1038 35.9467 30.6226 35.3531 30.6226Z" fill="#31C9F9"/>
<path fill-rule="evenodd" clip-rule="evenodd" d="M35.3535 32.7727H16.0037C15.4146 32.7727 14.9287 33.2586 14.9287 33.8477V34.9226H19.5311H21.9498H35.3534V32.7727H35.3535Z" fill="#FCFCFC"/>
<path fill-rule="evenodd" clip-rule="evenodd" d="M21.9492 34.9226H35.3528V37.0725H21.9492V34.9226Z" fill="#FCFCFC"/>
<path fill-rule="evenodd" clip-rule="evenodd" d="M21.949 37.0726V34.9226H19.5303V37.0726V38.6851L20.7396 38.1476L21.949 38.6851V37.0726Z" fill="#CB3A31"/>
<path fill-rule="evenodd" clip-rule="evenodd" d="M19.5312 37.0726V34.9226H14.9287V35.9976C14.9287 36.5867 15.4146 37.0726 16.0037 37.0726H19.5312Z" fill="#FCFCFC"/>
<path fill-rule="evenodd" clip-rule="evenodd" d="M38.1479 22.0227H18.7982C17.0223 22.0227 15.5732 23.4718 15.5732 25.2477V27.3976C15.5732 29.1735 17.0223 30.6226 18.7982 30.6226H35.3528H38.148C38.7417 30.6226 39.223 30.1413 39.223 29.5476C39.223 28.9539 38.7417 28.4726 38.148 28.4726H18.7982C18.2091 28.4726 17.7232 27.9867 17.7232 27.3976V25.2477C17.7232 24.6586 18.2091 24.1727 18.7982 24.1727H38.148C38.7417 24.1727 39.223 23.6914 39.223 23.0977C39.2229 22.504 38.7416 22.0227 38.1479 22.0227Z" fill="#FFC144"/>
<path fill-rule="evenodd" clip-rule="evenodd" d="M38.1483 24.1729H18.7986C18.2095 24.1729 17.7236 24.6587 17.7236 25.2478V26.3228H38.1484V24.1729H38.1483Z" fill="#FCFCFC"/>
<path fill-rule="evenodd" clip-rule="evenodd" d="M38.1483 28.4727H18.7986C18.2095 28.4727 17.7236 27.9868 17.7236 27.3977V26.3228H38.1484V28.4727H38.1483Z" fill="#FCFCFC"/>
<path fill-rule="evenodd" clip-rule="evenodd" d="M25.9732 21.5108C26.5993 21.5108 27.0584 21.8322 27.513 21.9196C27.8995 21.9939 28.3391 21.7085 28.5912 21.4405C28.94 21.0697 29.4083 20.4266 29.6365 19.9619C30.1933 18.8279 30.5756 17.4598 30.3055 16.1788C30.0689 15.0565 29.2427 14.1041 28.0891 13.8843C27.479 13.7681 27.0601 13.9675 26.6727 14.1332C26.3589 14.2872 26.1301 14.5125 25.8709 14.6723C25.9101 14.5774 25.9487 14.4727 25.9832 14.3604C21.3304 12.5763 20.9173 17.126 22.3099 19.9619C22.5381 20.4265 23.0064 21.0697 23.3552 21.4405C23.6073 21.7085 24.0469 21.9939 24.4333 21.9196C24.8881 21.8322 25.3471 21.5108 25.9732 21.5108Z" fill="#CB3A31"/>
<path d="M38.685 28.0276V24.6178C39.3106 24.396 39.76 23.7985 39.76 23.0978C39.76 22.2087 39.0366 21.4853 38.1475 21.4853H29.2626C29.5705 21.107 29.9154 20.6118 30.1181 20.1989C30.6235 19.1697 31.1574 17.6177 30.8307 16.0681C30.5361 14.6704 29.4991 13.606 28.189 13.3564C27.5263 13.2302 27.0271 13.4009 26.6481 13.5592C26.6492 13.2147 26.5893 12.8848 26.4667 12.5781C26.3564 12.3024 26.0435 12.1683 25.768 12.2786C25.4923 12.3889 25.3583 12.7017 25.4685 12.9773C25.5579 13.2008 25.5829 13.4323 25.5705 13.6536C23.6183 13.0791 22.5314 13.667 21.9526 14.3006C21.3548 14.9551 21.0496 15.9259 21.0703 17.1081C21.0884 18.1446 21.3571 19.2423 21.8268 20.199C22.0296 20.6118 22.3745 21.107 22.6823 21.4853H18.7978C16.7232 21.4853 15.0354 23.1732 15.0354 25.2478V27.3977C15.0354 28.4498 15.4699 29.4018 16.1682 30.0852H16.0027C13.928 30.0852 12.2402 31.773 12.2402 33.8477V35.9976C12.2402 38.0722 13.928 39.76 16.0027 39.76H35.3524C36.2415 39.76 36.9649 39.0367 36.9649 38.1476C36.9649 37.4468 36.5155 36.8494 35.8899 36.6275V33.2177C36.5155 32.9958 36.9649 32.3984 36.9649 31.6977C36.9649 31.5092 36.9321 31.3284 36.8725 31.1602H38.1475C39.0366 31.1602 39.76 30.4368 39.76 29.5477C39.76 28.847 39.3106 28.2495 38.685 28.0276ZM22.7462 15.0257C23.1009 14.6373 23.5869 14.497 24.1045 14.497C24.1778 14.497 24.2519 14.4999 24.3262 14.5053C24.3021 14.544 24.282 14.5861 24.268 14.6318C24.181 14.9157 24.3406 15.2163 24.6244 15.3032C24.8506 15.3726 25.0534 15.4016 25.2368 15.4016C25.8129 15.4016 26.1948 15.1147 26.493 14.8906C26.631 14.7869 26.7616 14.6891 26.904 14.6185C26.9162 14.6132 26.9287 14.608 26.9408 14.6028C27.2778 14.4578 27.5687 14.3326 27.9878 14.4124C28.8709 14.5807 29.574 15.3176 29.7789 16.2898C30.0424 17.5396 29.5841 18.8478 29.1533 19.7251C28.9648 20.1089 28.5367 20.7132 28.1989 21.0723C27.9962 21.2879 27.7274 21.4137 27.6137 21.3919C27.4896 21.368 27.347 21.3132 27.1818 21.2497C26.8615 21.1266 26.4629 20.9734 25.9725 20.9734C25.4821 20.9734 25.0835 21.1266 24.7632 21.2497C24.598 21.3132 24.4553 21.368 24.3312 21.3919C24.2169 21.4134 23.9489 21.2879 23.746 21.0723C23.4083 20.7132 22.9801 20.1089 22.7916 19.7251C22.0461 18.2068 21.8252 16.0338 22.7462 15.0257ZM18.7978 27.9352C18.5064 27.9352 18.2603 27.689 18.2603 27.3977V26.8602H25.5166C25.8134 26.8602 26.0541 26.6196 26.0541 26.3227C26.0541 26.0259 25.8134 25.7852 25.5166 25.7852H18.2603V25.2477C18.2603 24.9564 18.5064 24.7102 18.7978 24.7102H37.61V25.7852H30.3541C30.0573 25.7852 29.8166 26.0258 29.8166 26.3227C29.8166 26.6195 30.0573 26.8602 30.3541 26.8602H37.61V27.9351H18.7978V27.9352ZM22.4863 36.535V35.4601H34.8149V36.535H22.4863ZM20.0676 35.4601H21.4113V37.858L20.9577 37.6564C20.8188 37.5946 20.6601 37.5946 20.5212 37.6564L20.0676 37.858V35.4601C20.0676 35.4601 20.0676 35.4601 20.0676 35.4601ZM34.8149 34.3851H15.4652V33.8477C15.4652 33.5563 15.7113 33.3102 16.0026 33.3102H34.8149V34.3851ZM15.4652 35.4601H18.9926V36.535H16.0026C15.7113 36.535 15.4652 36.2889 15.4652 35.9975V35.4601ZM35.3524 38.685H22.4863V37.61H35.3524C35.6488 37.61 35.8899 37.8511 35.8899 38.1475C35.8899 38.4439 35.6488 38.685 35.3524 38.685ZM35.8899 31.6977C35.8899 31.9941 35.6488 32.2352 35.3524 32.2352H16.0026C15.1135 32.2352 14.3902 32.9585 14.3902 33.8477V35.9976C14.3902 36.8867 15.1135 37.6101 16.0026 37.6101H18.9926V38.6851H16.0026C14.5208 38.6851 13.3152 37.4795 13.3152 35.9976V33.8477C13.3152 32.3658 14.5208 31.1602 16.0026 31.1602H18.7978H35.3524C35.6488 31.1602 35.8899 31.4013 35.8899 31.6977ZM38.1475 30.0852H18.7978C17.3159 30.0852 16.1103 28.8796 16.1103 27.3977V25.2478C16.1103 23.7659 17.3159 22.5603 18.7978 22.5603H38.1475C38.4439 22.5603 38.685 22.8014 38.685 23.0978C38.685 23.3942 38.4439 23.6353 38.1475 23.6353H18.7978C17.9087 23.6353 17.1853 24.3587 17.1853 25.2478V27.3977C17.1853 28.2868 17.9087 29.0102 18.7978 29.0102H38.1475C38.4439 29.0102 38.685 29.2513 38.685 29.5477C38.685 29.8441 38.4439 30.0852 38.1475 30.0852Z" fill="#363636"/>
<path d="M27.9361 25.7852H27.9357C27.6389 25.7852 27.3984 26.0258 27.3984 26.3227C27.3984 26.6195 27.6392 26.8602 27.9361 26.8602C28.233 26.8602 28.4736 26.6195 28.4736 26.3227C28.4736 26.0258 28.2329 25.7852 27.9361 25.7852Z" fill="#363636"/>
</svg>
