<svg width="52" height="52" viewBox="0 0 52 52" fill="none" xmlns="http://www.w3.org/2000/svg">
<circle cx="26" cy="26" r="26" fill="#E1F7FF"/>
<path d="M34.8645 32.1491C35.9794 32.1491 36.8832 31.2453 36.8832 30.1303C36.8832 29.0154 35.9794 28.1116 34.8645 28.1116C33.7495 28.1116 32.8457 29.0154 32.8457 30.1303C32.8457 31.2453 33.7495 32.1491 34.8645 32.1491Z" fill="#0594C2"/>
<path d="M18.5422 32.1491C19.6571 32.1491 20.561 31.2453 20.561 30.1303C20.561 29.0154 19.6571 28.1116 18.5422 28.1116C17.4273 28.1116 16.5234 29.0154 16.5234 30.1303C16.5234 31.2453 17.4273 32.1491 18.5422 32.1491Z" fill="#0594C2"/>
<path d="M20.5609 30.13C20.5609 29.015 19.657 28.1117 18.5421 28.1117C17.4341 28.1117 16.5342 29.0041 16.5233 30.1093C13.7777 29.9989 11.8555 29.4894 11.8555 29.4894V27.2774C11.8555 26.9577 11.9388 26.6432 12.097 26.3649L12.546 25.576L12.6208 25.4449V23.8688L15.3911 23.3755C15.3911 23.3755 19.3356 19.8513 21.8949 19.8513C23.2467 19.8513 25.3414 19.8657 26.4736 19.8795C27.5673 19.8933 28.6074 20.3504 29.3561 21.1474L31.3588 23.3893C31.6336 23.6969 32.0137 23.8912 32.4242 23.9326C33.994 24.0931 38.0063 24.5174 39.1937 24.7836C39.7503 24.9084 40.1453 25.4023 40.1453 25.9727V27.3773C40.1453 27.8509 39.9749 28.3087 39.6652 28.6669V29.1583C39.6652 29.5374 39.3853 29.8583 39.0097 29.9097C38.3059 30.0253 37.5958 30.0955 36.8833 30.1196C36.8776 29.0093 35.976 28.1117 34.8645 28.1117C33.7496 28.1117 32.8457 29.015 32.8457 30.13H20.5609Z" fill="#75DBFB"/>
<path d="M17.4189 24.4439H29.422L27.6637 22.4757C27.3463 22.1468 26.9035 21.9272 26.4447 21.9214C25.3344 21.9076 23.2402 21.9214 21.8947 21.9214C21.8044 21.9214 20.954 21.9588 19.0111 23.2617C18.3654 23.6947 17.7984 24.1352 17.4189 24.4439Z" fill="#FCFCFC"/>
<path d="M38.9552 26.9009H40.1453V25.9726C40.1453 25.4114 39.7612 24.9249 39.2161 24.7892C38.6509 24.6478 38.0909 24.5938 38.0909 24.5938L37.9706 24.8526C37.7675 25.2896 37.7609 25.7722 37.9197 26.1955C38.0803 26.6237 38.4979 26.9009 38.9552 26.9009Z" fill="#F4E7B8"/>
<path d="M11.8555 27.2776V27.8081H13.3254C13.9414 27.8081 14.4628 27.3212 14.4699 26.7052C14.477 26.0928 13.9665 25.5759 13.3539 25.5759H12.546L12.0971 26.3647C11.9387 26.6429 11.8555 26.9575 11.8555 27.2776Z" fill="#FCFCFC"/>
<path d="M29.9467 24.6788C30.0393 24.4718 30.0017 24.2298 29.8506 24.0608L28.0923 22.0927C28.0874 22.0872 28.0824 22.0818 28.0773 22.0765C27.6367 21.62 27.0442 21.354 26.4516 21.3466C25.6927 21.3371 24.5064 21.3404 23.3593 21.3436C22.8323 21.3451 22.3251 21.3465 21.8946 21.3465C21.6459 21.3465 20.6801 21.4502 18.6907 22.7842C18.0186 23.2349 17.4308 23.693 17.0559 23.9979C16.8671 24.1515 16.7955 24.4072 16.877 24.6365C16.9585 24.8657 17.1755 25.0189 17.4188 25.0189H29.4219C29.6485 25.0189 29.854 24.8857 29.9467 24.6788ZM19.3312 23.7393C21.1256 22.5359 21.8913 22.4967 21.8946 22.4964C22.3162 22.4964 22.8115 22.4951 23.3268 22.4936V23.8689H19.1406C19.2032 23.8257 19.2668 23.7824 19.3312 23.7393ZM24.4768 23.8689V22.4909C25.2302 22.4896 25.9318 22.4901 26.4373 22.4964C26.7178 22.5 27.0181 22.6386 27.2427 22.8678L28.1371 23.8689H24.4768Z" fill="#363636"/>
<path d="M40.7185 25.8957C40.6849 25.0878 40.1006 24.3984 39.3141 24.2214C38.7289 24.0789 38.1699 24.0239 38.1459 24.0215C38.144 24.0214 33.7634 23.4915 32.4817 23.3606C32.214 23.3335 31.9674 23.2077 31.7874 23.0062L29.7848 20.7643C29.7815 20.7607 29.7783 20.7572 29.775 20.7536C28.9246 19.8484 27.7238 19.3202 26.4804 19.3045C25.3606 19.2909 23.2508 19.2764 21.8947 19.2764C20.7167 19.2764 19.1915 19.9023 17.3616 21.1367C16.2932 21.8574 15.4426 22.5701 15.1329 22.8373L12.5198 23.3027C12.2455 23.3516 12.0456 23.5901 12.0456 23.8688V25.2925L11.5969 26.0808C11.3914 26.4426 11.2818 26.862 11.2803 27.2776V29.4894C11.2803 29.7502 11.4559 29.9784 11.708 30.0452C11.784 30.0654 13.4945 30.5123 16.0023 30.6592C16.2473 31.8366 17.2927 32.724 18.5417 32.724C19.7744 32.724 20.8082 31.8594 21.0705 30.705H24.0377C24.3552 30.705 24.6127 30.4475 24.6127 30.13C24.6127 29.8125 24.3552 29.555 24.0377 29.555H21.0714C20.8008 28.3652 19.6958 27.5092 18.4797 27.5381C17.3276 27.5656 16.3003 28.388 16.0237 29.5084C14.3671 29.4078 13.0664 29.1683 12.4302 29.0323V28.3832H13.3251C14.2627 28.3832 15.034 27.6335 15.0445 26.7119C15.0552 25.7834 14.2822 25.0011 13.3536 25.0011H13.1955V24.3505L15.4917 23.9415C15.5966 23.9229 15.6944 23.8754 15.7739 23.8044C16.8265 22.8648 19.9781 20.4264 21.8946 20.4264C23.2465 20.4264 25.35 20.4409 26.4661 20.4544C27.3962 20.4662 28.2946 20.8604 28.932 21.536L30.9297 23.7724C31.3017 24.1888 31.8119 24.4489 32.3655 24.5047C33.2491 24.595 35.5632 24.8369 37.2923 25.0649C37.1899 25.5044 37.2185 25.9644 37.381 26.3976C37.623 27.0427 38.2555 27.4761 38.955 27.4761H39.5656C39.5444 27.7759 39.4277 28.0623 39.2299 28.2911C39.1397 28.3955 39.09 28.529 39.09 28.667V29.1584C39.09 29.2496 39.0218 29.3277 38.9315 29.3401C38.9264 29.3408 38.9213 29.3415 38.9162 29.3424C38.4105 29.4254 37.8975 29.4845 37.385 29.5187C37.0946 28.3291 35.9647 27.4839 34.7446 27.5395C33.5961 27.5919 32.5901 28.4318 32.3346 29.555H29.0971C28.7796 29.555 28.5221 29.8125 28.5221 30.13C28.5221 30.4475 28.7796 30.705 29.0971 30.705H32.3356C32.5979 31.8594 33.6318 32.724 34.8644 32.724C36.1096 32.724 37.1524 31.8418 37.4013 30.6697C37.9683 30.6338 38.5363 30.5699 39.0958 30.4783C39.7486 30.3847 40.2399 29.8188 40.2399 29.1584V28.8658C40.5508 28.4338 40.7199 27.9133 40.7199 27.3774V26.9011V25.9728C40.7202 25.947 40.7196 25.9213 40.7185 25.8957ZM18.5417 31.574C17.7457 31.574 17.098 30.9263 17.098 30.1303C17.098 29.3519 17.7569 28.6868 18.542 28.6868C18.8156 28.6868 19.0717 28.7632 19.29 28.896C19.7067 29.1495 19.9855 29.608 19.9855 30.1304C19.9856 30.9263 19.3379 31.574 18.5417 31.574ZM13.736 26.3091C13.8402 26.4132 13.8965 26.5515 13.8948 26.6985C13.8914 26.9933 13.6359 27.2331 13.3253 27.2331H12.4318C12.4412 26.9674 12.5414 26.7384 12.6744 26.5126L12.8803 26.151H13.3538C13.4983 26.151 13.6341 26.2072 13.736 26.3091ZM34.8646 31.574C34.0685 31.574 33.4209 30.9263 33.4209 30.1303C33.4209 29.3447 34.0776 28.6868 34.8644 28.6868C35.6488 28.6868 36.3083 29.348 36.3083 30.1303C36.3083 30.9263 35.6607 31.574 34.8646 31.574ZM38.4579 25.9938C38.3645 25.7446 38.359 25.4781 38.4395 25.2294C38.6852 25.2688 38.893 25.3063 39.0498 25.3408C39.3457 25.4133 39.5702 25.6594 39.5702 25.9728V26.3261H38.9552C38.7323 26.326 38.5324 26.1925 38.4579 25.9938Z" fill="#363636"/>
<path d="M26.4603 26.6919C26.4603 26.3744 26.2029 26.1169 25.8853 26.1169H24.7078C24.3903 26.1169 24.1328 26.3744 24.1328 26.6919C24.1328 27.0095 24.3903 27.2669 24.7078 27.2669H25.8853C26.2029 27.2669 26.4603 27.0095 26.4603 26.6919Z" fill="#363636"/>
<path d="M27.0792 29.91C26.9588 29.6207 26.6181 29.4789 26.3282 29.5989C26.0388 29.7188 25.8977 30.0607 26.0171 30.3498C26.1368 30.6396 26.4788 30.7804 26.7681 30.6609C27.0585 30.541 27.1981 30.1998 27.0792 29.91Z" fill="#363636"/>
</svg>
