<svg width="52" height="52" viewBox="0 0 52 52" fill="none" xmlns="http://www.w3.org/2000/svg">
<circle cx="26" cy="26" r="26" fill="#E1F7FF"/>
<path d="M15.4717 17.7091H18.7881V16.7418C18.7881 16.2098 18.3528 15.7745 17.8208 15.7745H16.439C15.907 15.7745 15.4717 16.2098 15.4717 16.7418V17.7091Z" fill="#F3BDB9"/>
<path d="M34.1802 15.7745C33.6482 15.7745 33.2129 16.2098 33.2129 16.7418V17.7091H36.5293V16.7418C36.5293 16.2098 36.094 15.7745 35.562 15.7745H34.1802Z" fill="#F3BDB9"/>
<path d="M33.2133 17.709H31.0489H20.8376H18.7877H15.4713H13.8131C13.0377 17.709 12.4033 18.3434 12.4033 19.1188V36.1974C12.4033 36.9728 13.0377 37.6072 13.8131 37.6072H38.1879C38.9632 37.6072 39.5977 36.9728 39.5977 36.1973V19.1188C39.5977 18.3434 38.9632 17.709 38.1879 17.709H36.5296H33.2133ZM23.9076 22.077H28.0934V25.5651H31.5814V29.7509H28.0934V33.239H23.9076V29.7509H20.4195V25.5651H23.9076V22.077Z" fill="#FCFCFC"/>
<path d="M28.0938 25.5653V22.0771H23.908V25.5653H20.4199V29.751H23.908V33.2392H28.0938V29.751H31.5819V25.5653H28.0938Z" fill="#CB3A31"/>
<path d="M38.1879 17.1563H37.0824V16.7417C37.0824 15.9036 36.4005 15.2217 35.5623 15.2217H34.1805C33.3424 15.2217 32.6605 15.9036 32.6605 16.7417V17.1563H31.6017V15.6052C31.6017 14.6318 30.8098 13.84 29.8363 13.84H22.05C21.0767 13.84 20.2849 14.6319 20.2849 15.6052V17.1563H19.3404V16.7417C19.3404 15.9036 18.6585 15.2217 17.8204 15.2217H16.4386C15.6005 15.2217 14.9186 15.9036 14.9186 16.7417V17.1563H13.8131C12.731 17.1563 11.8506 18.0367 11.8506 19.1189V36.1975C11.8506 37.2796 12.731 38.16 13.8131 38.16H38.1879C39.27 38.16 40.1504 37.2796 40.1504 36.1974V19.1189C40.1504 18.0367 39.27 17.1563 38.1879 17.1563ZM33.766 16.7417C33.766 16.5132 33.9519 16.3272 34.1805 16.3272H35.5623C35.791 16.3272 35.9769 16.5132 35.9769 16.7417V17.1563H33.766V16.7417ZM21.3903 15.6052C21.3903 15.2414 21.6862 14.9454 22.05 14.9454H29.8363C30.2002 14.9454 30.4962 15.2414 30.4962 15.6052V17.1563H21.3903V15.6052ZM16.024 16.7417C16.024 16.5132 16.21 16.3272 16.4386 16.3272H17.8204C18.049 16.3272 18.2349 16.5132 18.2349 16.7417V17.1563H16.024V16.7417ZM39.0449 36.1975C39.0449 36.6701 38.6605 37.0546 38.1879 37.0546H13.8131C13.3405 37.0545 12.956 36.6701 12.956 36.1975V19.1189C12.956 18.6463 13.3405 18.2618 13.8131 18.2618H38.1879C38.6605 18.2618 39.0449 18.6463 39.0449 19.1189V36.1975Z" fill="#363636"/>
<path d="M32.1346 29.751V25.5653C32.1346 25.26 31.8871 25.0125 31.5818 25.0125H28.6465V22.0771C28.6465 21.7719 28.399 21.5244 28.0938 21.5244H23.908C23.6028 21.5244 23.3553 21.7719 23.3553 22.0771V25.0125H20.4199C20.1147 25.0125 19.8672 25.26 19.8672 25.5653V29.751C19.8672 30.0563 20.1147 30.3037 20.4199 30.3037H23.3553V33.2391C23.3553 33.5444 23.6028 33.7919 23.908 33.7919H28.0938C28.399 33.7919 28.6465 33.5444 28.6465 33.2391V30.3037H31.5818C31.8871 30.3037 32.1346 30.0563 32.1346 29.751ZM31.0291 29.1983H28.0938C27.7886 29.1983 27.5411 29.4457 27.5411 29.751V32.6864H24.4608V29.751C24.4608 29.4457 24.2132 29.1983 23.908 29.1983H20.9726V26.118H23.908C24.2132 26.118 24.4608 25.8705 24.4608 25.5653V22.6299H27.5411V25.5653C27.5411 25.8705 27.7886 26.118 28.0938 26.118H31.0291V29.1983Z" fill="#363636"/>
<path d="M20.1967 19.6435C20.1967 19.3383 19.9492 19.0908 19.6439 19.0908H19.626C19.3208 19.0908 19.0732 19.3383 19.0732 19.6435C19.0732 19.9488 19.3208 20.1963 19.626 20.1963H19.6439C19.9492 20.1963 20.1967 19.9488 20.1967 19.6435Z" fill="#363636"/>
<path d="M17.9832 19.0908H14.3379C14.0327 19.0908 13.7852 19.3383 13.7852 19.6435C13.7852 19.9488 14.0327 20.1963 14.3379 20.1963H17.9832C18.2885 20.1963 18.536 19.9488 18.536 19.6435C18.536 19.3383 18.2885 19.0908 17.9832 19.0908Z" fill="#363636"/>
<path d="M37.6629 35.12H34.0176C33.7124 35.12 33.4648 35.3675 33.4648 35.6727C33.4648 35.978 33.7124 36.2255 34.0176 36.2255H37.6629C37.9682 36.2255 38.2157 35.978 38.2157 35.6727C38.2157 35.3675 37.9682 35.12 37.6629 35.12Z" fill="#363636"/>
<path d="M32.3743 35.12H32.3564C32.0512 35.12 31.8037 35.3675 31.8037 35.6727C31.8037 35.978 32.0512 36.2255 32.3564 36.2255H32.3743C32.6796 36.2255 32.9271 35.978 32.9271 35.6727C32.9271 35.3675 32.6796 35.12 32.3743 35.12Z" fill="#363636"/>
</svg>
