<svg width="52" height="52" viewBox="0 0 52 52" fill="none" xmlns="http://www.w3.org/2000/svg">
<circle cx="26" cy="26" r="26" fill="#E1F7FF"/>
<path d="M19.0693 19.1795V15.3866H26.6738V19.0668L19.0693 19.1795Z" fill="#9D9AE8"/>
<path d="M25.5186 15.3866V13.4432H33.123V19.009H26.6733V15.3866H25.5186Z" fill="#FFA96B"/>
<path d="M37.5266 19.0384C37.597 18.6654 37.6101 18.275 37.5575 17.8783C37.2922 15.8736 35.4519 14.4637 33.4473 14.7291V19.048L37.5266 19.0384Z" fill="#FF7D97"/>
<path d="M18.2238 38.5565C19.2217 38.5565 20.0306 37.7476 20.0306 36.7497C20.0306 35.7518 19.2217 34.9429 18.2238 34.9429C17.2259 34.9429 16.417 35.7518 16.417 36.7497C16.417 37.7476 17.2259 38.5565 18.2238 38.5565Z" fill="#FFA96B"/>
<path d="M35.1662 38.5565C36.1641 38.5565 36.973 37.7476 36.973 36.7497C36.973 35.7518 36.1641 34.9429 35.1662 34.9429C34.1683 34.9429 33.3594 35.7518 33.3594 36.7497C33.3594 37.7476 34.1683 38.5565 35.1662 38.5565Z" fill="#FFA96B"/>
<path fill-rule="evenodd" clip-rule="evenodd" d="M17.2852 19.3739H39.2725L37.2114 29.7558C37.0567 30.5367 36.4986 31.0845 35.8581 31.0845H20.4673" fill="#E1F7FF"/>
<path d="M39.8957 19.0166C39.7887 18.8862 39.629 18.8107 39.4604 18.8107H38.1291C38.1647 18.4774 38.1604 18.1402 38.1159 17.8044C37.9678 16.6856 37.3929 15.6916 36.4972 15.0053C35.6852 14.3832 34.6976 14.0826 33.6867 14.1421V13.4433C33.6867 13.1322 33.4344 12.88 33.1233 12.88H25.519C25.2079 12.88 24.9557 13.1322 24.9557 13.4433V14.8234H19.0693C18.7582 14.8234 18.506 15.0756 18.506 15.3867V18.8108H17.4979L16.7773 15.7937C16.7167 15.5402 16.4901 15.3613 16.2294 15.3613H14.6756C14.3645 15.3613 14.1123 15.6135 14.1123 15.9246C14.1123 16.2357 14.3645 16.4879 14.6756 16.4879H15.7849L19.2591 31.0344L17.9434 34.3969C16.7683 34.5362 15.8538 35.5379 15.8538 36.7498C15.8538 38.0567 16.917 39.12 18.224 39.12C19.5309 39.12 20.5941 38.0568 20.5941 36.7498C20.5941 36.294 20.4644 35.868 20.2405 35.5062H33.1496C32.9257 35.868 32.796 36.294 32.796 36.7498C32.796 38.0567 33.8593 39.12 35.1662 39.12C36.4731 39.12 37.5363 38.0568 37.5363 36.7498C37.5363 35.4429 36.4731 34.3797 35.1662 34.3797C35.1298 34.3797 19.16 34.3796 19.16 34.3796L20.2288 31.6479H36.046C36.9603 31.6479 37.744 30.9149 37.9519 29.8657L40.0129 19.4837C40.0457 19.3183 40.0028 19.147 39.8957 19.0166V19.0166ZM18.224 37.9934C17.5382 37.9934 16.9804 37.4355 16.9804 36.7498C16.9804 36.0641 17.5383 35.5063 18.224 35.5063C18.9097 35.5063 19.4675 36.0642 19.4675 36.7498C19.4675 37.4355 18.9096 37.9934 18.224 37.9934ZM36.4097 36.7498C36.4097 37.4356 35.8518 37.9934 35.1662 37.9934C34.4804 37.9934 33.9226 37.4355 33.9226 36.7498C33.9226 36.0641 34.4805 35.5063 35.1662 35.5063C35.8518 35.5063 36.4097 36.0641 36.4097 36.7498V36.7498ZM38.2683 22.486H33.0483L32.4164 19.9373H38.7743L38.2683 22.486ZM37.5387 26.1613H33.9595L33.3276 23.6125H38.0447L37.5387 26.1613ZM30.1402 30.5213L29.3385 27.2878H33.0781L33.8799 30.5213H30.1402ZM25.2398 30.5213L24.4381 27.2878H28.1778L28.9795 30.5213H25.2398ZM20.2948 30.5213L19.5226 27.2878H23.2774L24.0791 30.5213H20.2948ZM31.2557 19.9373L31.8876 22.486H28.1479L27.5161 19.9373H31.2557ZM26.3553 19.9373L26.9872 22.486H23.2475L22.6156 19.9373H26.3553ZM27.2666 23.6125L27.8985 26.1613H24.1588L23.5269 23.6125H27.2666ZM22.9981 26.1613H19.2535L18.6447 23.6125H22.3662L22.9981 26.1613ZM29.0592 26.1613L28.4273 23.6125H32.1669L32.7989 26.1613H29.0592ZM36.9992 17.9523C37.0372 18.2395 37.0353 18.5276 36.9937 18.8107H33.6867V15.2704C35.3152 15.1425 36.7822 16.314 36.9992 17.9523ZM26.0822 14.0066H32.5601V18.8107H27.237V15.3866C27.237 15.0756 26.9848 14.8233 26.6737 14.8233H26.0822V14.0066ZM19.6326 15.95H26.1104V18.8108H19.6326V15.95ZM21.455 19.9373L22.0869 22.486H18.3757L17.767 19.9373H21.455ZM36.046 30.5213H35.0406L34.2389 27.2878H37.315L36.8468 29.6465C36.7464 30.1534 36.4096 30.5213 36.046 30.5213V30.5213Z" fill="#363636"/>
<path d="M11.9199 15.9358C11.9199 16.2425 12.1685 16.4911 12.4752 16.4911L13.0306 16.4911C13.3372 16.4911 13.5859 16.2425 13.5859 15.9358C13.5859 15.6291 13.3372 15.3805 13.0306 15.3805L12.4752 15.3805C12.1685 15.3805 11.9199 15.6291 11.9199 15.9358Z" fill="#363636"/>
</svg>
