<svg width="52" height="52" viewBox="0 0 52 52" fill="none" xmlns="http://www.w3.org/2000/svg">
<circle cx="26" cy="26" r="26" fill="#E1F7FF"/>
<path d="M13.0752 13.0876H29.5691V36.6144H13.0752V13.0876Z" fill="#F4E7B8"/>
<path d="M25.6631 38.9124C24.7888 38.9124 24.0801 38.2037 24.0801 37.3294V21.3657C24.0801 20.4915 24.7888 19.7827 25.6631 19.7827H37.3404C38.2147 19.7827 38.9234 20.4915 38.9234 21.3657V37.3294C38.9234 38.2037 38.2147 38.9124 37.3404 38.9124H25.6631Z" fill="white"/>
<path d="M27.2041 21.8684H35.6976V24.0278H27.2041V21.8684Z" fill="#31C9F9"/>
<path d="M27.2629 28.3679H27.2539C26.6601 28.3679 26.1787 27.8866 26.1787 27.2927V27.2837C26.1787 26.6899 26.6601 26.2085 27.2539 26.2085H27.2629C27.8568 26.2085 28.3381 26.6899 28.3381 27.2837V27.2927C28.3381 27.8866 27.8568 28.3679 27.2629 28.3679Z" fill="#F3BDB9"/>
<path d="M31.4846 28.3679H31.4755C30.8817 28.3679 30.4004 27.8866 30.4004 27.2927V27.2837C30.4004 26.6899 30.8818 26.2085 31.4755 26.2085H31.4846C32.0784 26.2085 32.5598 26.6899 32.5598 27.2837V27.2927C32.5597 27.8866 32.0783 28.3679 31.4846 28.3679Z" fill="#F3BDB9"/>
<path d="M27.2629 32.5894H27.2539C26.6601 32.5894 26.1787 32.108 26.1787 31.5142V31.5051C26.1787 30.9113 26.6601 30.4299 27.2539 30.4299H27.2629C27.8568 30.4299 28.3381 30.9113 28.3381 31.5051V31.5142C28.3381 32.108 27.8568 32.5894 27.2629 32.5894Z" fill="#F3BDB9"/>
<path d="M31.4846 32.5894H31.4755C30.8817 32.5894 30.4004 32.108 30.4004 31.5142V31.5051C30.4004 30.9113 30.8818 30.4299 31.4755 30.4299H31.4846C32.0784 30.4299 32.5598 30.9113 32.5598 31.5051V31.5142C32.5597 32.108 32.0783 32.5894 31.4846 32.5894Z" fill="#F3BDB9"/>
<path d="M27.2629 36.8106H27.2539C26.6601 36.8106 26.1787 36.3292 26.1787 35.7354V35.7263C26.1787 35.1325 26.6601 34.6511 27.2539 34.6511H27.2629C27.8568 34.6511 28.3381 35.1325 28.3381 35.7263V35.7354C28.3381 36.3292 27.8568 36.8106 27.2629 36.8106Z" fill="#F3BDB9"/>
<path d="M31.4846 36.8106H31.4755C30.8817 36.8106 30.4004 36.3292 30.4004 35.7354V35.7263C30.4004 35.1325 30.8818 34.6511 31.4755 34.6511H31.4846C32.0784 34.6511 32.5598 35.1325 32.5598 35.7263V35.7354C32.5597 36.3292 32.0783 36.8106 31.4846 36.8106Z" fill="#F3BDB9"/>
<path d="M35.7053 28.3679H35.6963C35.1025 28.3679 34.6211 27.8866 34.6211 27.2927V27.2837C34.6211 26.6899 35.1025 26.2085 35.6963 26.2085H35.7053C36.2992 26.2085 36.7805 26.6899 36.7805 27.2837V27.2927C36.7805 27.8866 36.2992 28.3679 35.7053 28.3679Z" fill="#F3BDB9"/>
<path d="M35.7063 36.8109H35.6973C35.1034 36.8109 34.6221 36.3295 34.6221 35.7357V31.5505C34.6221 30.9567 35.1034 30.4753 35.6973 30.4753H35.7063C36.3001 30.4753 36.7815 30.9567 36.7815 31.5505V35.7357C36.7815 36.3295 36.3001 36.8109 35.7063 36.8109Z" fill="#B3EAC6"/>
<path d="M37.3408 19.2549H30.0972V13.0877C30.0972 12.7963 29.8609 12.5601 29.5695 12.5601H13.0755C12.7841 12.5601 12.5479 12.7963 12.5479 13.0877V36.6145C12.5479 36.9059 12.7841 37.1422 13.0755 37.1422H23.5527V37.3294C23.5527 38.4932 24.4996 39.44 25.6634 39.44H29.0703C29.3617 39.44 29.5979 39.2038 29.5979 38.9124C29.5979 38.621 29.3617 38.3847 29.0703 38.3847H25.6634C25.0815 38.3847 24.6081 37.9113 24.6081 37.3294V21.3656C24.6081 20.7837 25.0815 20.3103 25.6634 20.3103H37.3407C37.9226 20.3103 38.396 20.7837 38.396 21.3656V37.3293C38.396 37.9113 37.9226 38.3847 37.3407 38.3847H33.8061C33.5147 38.3847 33.2785 38.6209 33.2785 38.9123C33.2785 39.2037 33.5147 39.44 33.8061 39.44H37.3407C38.5045 39.44 39.4514 38.4931 39.4514 37.3293V21.3656C39.4514 20.2018 38.5046 19.2549 37.3408 19.2549ZM23.5527 21.3656V36.0868H13.6032V13.6154H29.0418V19.255H25.6634C24.4996 19.2549 23.5527 20.2018 23.5527 21.3656Z" fill="#363636"/>
<path d="M36.2256 24.0279V21.8685C36.2256 21.5771 35.9894 21.3408 35.698 21.3408H27.2044C26.913 21.3408 26.6768 21.5771 26.6768 21.8685V24.0279C26.6768 24.3193 26.913 24.5556 27.2044 24.5556H35.698C35.9894 24.5556 36.2256 24.3193 36.2256 24.0279ZM35.1703 23.5003H27.7321V22.3962H35.1703V23.5003Z" fill="#363636"/>
<path d="M27.2588 25.6809C26.3725 25.6809 25.6514 26.402 25.6514 27.2882C25.6514 28.1746 26.3725 28.8956 27.2588 28.8956C28.145 28.8956 28.8661 28.1745 28.8661 27.2882C28.8661 26.402 28.145 25.6809 27.2588 25.6809ZM27.2588 27.8403C26.9544 27.8403 26.7068 27.5926 26.7068 27.2882C26.7068 26.9838 26.9544 26.7362 27.2588 26.7362C27.5632 26.7362 27.8108 26.9838 27.8108 27.2882C27.8108 27.5926 27.5632 27.8403 27.2588 27.8403Z" fill="#363636"/>
<path d="M31.4804 25.6809C30.5941 25.6809 29.873 26.402 29.873 27.2882C29.873 28.1746 30.5941 28.8956 31.4804 28.8956C32.3667 28.8956 33.0878 28.1745 33.0878 27.2882C33.0878 26.402 32.3667 25.6809 31.4804 25.6809ZM31.4804 27.8403C31.176 27.8403 30.9284 27.5926 30.9284 27.2882C30.9284 26.9838 31.1761 26.7362 31.4804 26.7362C31.7848 26.7362 32.0324 26.9838 32.0324 27.2882C32.0324 27.5926 31.7848 27.8403 31.4804 27.8403Z" fill="#363636"/>
<path d="M27.2588 29.9023C26.3725 29.9023 25.6514 30.6234 25.6514 31.5097C25.6514 32.396 26.3725 33.1171 27.2588 33.1171C28.145 33.1171 28.8661 32.396 28.8661 31.5097C28.8661 30.6234 28.145 29.9023 27.2588 29.9023ZM27.2588 32.0617C26.9544 32.0617 26.7068 31.8141 26.7068 31.5097C26.7068 31.2053 26.9544 30.9577 27.2588 30.9577C27.5632 30.9577 27.8108 31.2053 27.8108 31.5097C27.8108 31.8141 27.5632 32.0617 27.2588 32.0617Z" fill="#363636"/>
<path d="M31.4804 29.9023C30.5941 29.9023 29.873 30.6234 29.873 31.5097C29.873 32.396 30.5941 33.1171 31.4804 33.1171C32.3667 33.1171 33.0878 32.396 33.0878 31.5097C33.0878 30.6234 32.3667 29.9023 31.4804 29.9023ZM31.4804 32.0617C31.176 32.0617 30.9284 31.8141 30.9284 31.5097C30.9284 31.2053 31.1761 30.9577 31.4804 30.9577C31.7848 30.9577 32.0324 31.2053 32.0324 31.5097C32.0324 31.8141 31.7848 32.0617 31.4804 32.0617Z" fill="#363636"/>
<path d="M27.2588 34.1238C26.3725 34.1238 25.6514 34.8449 25.6514 35.7311C25.6514 36.6175 26.3725 37.3385 27.2588 37.3385C28.145 37.3385 28.8661 36.6174 28.8661 35.7311C28.8661 34.8449 28.145 34.1238 27.2588 34.1238ZM27.2588 36.2832C26.9544 36.2832 26.7068 36.0356 26.7068 35.7312C26.7068 35.4268 26.9544 35.1792 27.2588 35.1792C27.5632 35.1792 27.8108 35.4268 27.8108 35.7312C27.8108 36.0355 27.5632 36.2832 27.2588 36.2832Z" fill="#363636"/>
<path d="M31.4804 34.1238C30.5941 34.1238 29.873 34.8449 29.873 35.7311C29.873 36.6175 30.5941 37.3385 31.4804 37.3385C32.3667 37.3385 33.0878 36.6174 33.0878 35.7311C33.0878 34.8449 32.3667 34.1238 31.4804 34.1238ZM31.4804 36.2832C31.176 36.2832 30.9284 36.0356 30.9284 35.7312C30.9284 35.4268 31.1761 35.1792 31.4804 35.1792C31.7848 35.1792 32.0324 35.4268 32.0324 35.7312C32.0324 36.0355 31.7848 36.2832 31.4804 36.2832Z" fill="#363636"/>
<path d="M35.7021 25.6809C34.8158 25.6809 34.0947 26.402 34.0947 27.2882C34.0947 28.1746 34.8158 28.8956 35.7021 28.8956C36.5884 28.8956 37.3095 28.1745 37.3095 27.2882C37.3095 26.402 36.5884 25.6809 35.7021 25.6809ZM35.7021 27.8403C35.3977 27.8403 35.1501 27.5926 35.1501 27.2882C35.1501 26.9838 35.3978 26.7362 35.7021 26.7362C36.0065 26.7362 36.2541 26.9838 36.2541 27.2882C36.2542 27.5926 36.0065 27.8403 35.7021 27.8403Z" fill="#363636"/>
<path d="M35.7021 29.9478C34.8158 29.9478 34.0947 30.6688 34.0947 31.5551V35.7312C34.0947 36.6175 34.8158 37.3386 35.7021 37.3386C36.5884 37.3386 37.3095 36.6175 37.3095 35.7312V31.5551C37.3095 30.6688 36.5884 29.9478 35.7021 29.9478ZM36.2542 35.7312C36.2542 36.0356 36.0065 36.2832 35.7022 36.2832C35.3978 36.2832 35.1502 36.0356 35.1502 35.7312V31.5551C35.1502 31.2507 35.3978 31.0031 35.7022 31.0031C36.0066 31.0031 36.2542 31.2507 36.2542 31.5551V35.7312Z" fill="#363636"/>
<path d="M21.8629 17.7161H15.5784C15.287 17.7161 15.0508 17.9523 15.0508 18.2437C15.0508 18.5352 15.287 18.7714 15.5784 18.7714H21.8629C22.1543 18.7714 22.3905 18.5352 22.3905 18.2437C22.3905 17.9523 22.1543 17.7161 21.8629 17.7161Z" fill="#363636"/>
<path d="M21.8629 15.6052H15.5784C15.287 15.6052 15.0508 15.8415 15.0508 16.1329C15.0508 16.4243 15.287 16.6606 15.5784 16.6606H21.8629C22.1543 16.6606 22.3905 16.4243 22.3905 16.1329C22.3905 15.8415 22.1543 15.6052 21.8629 15.6052Z" fill="#363636"/>
<path d="M21.8629 19.8267H15.5784C15.287 19.8267 15.0508 20.0629 15.0508 20.3543C15.0508 20.6457 15.287 20.882 15.5784 20.882H21.8629C22.1543 20.882 22.3905 20.6457 22.3905 20.3543C22.3905 20.0629 22.1543 19.8267 21.8629 19.8267Z" fill="#363636"/>
<path d="M21.8629 21.9375H15.5784C15.287 21.9375 15.0508 22.1737 15.0508 22.4652C15.0508 22.7566 15.287 22.9928 15.5784 22.9928H21.8629C22.1543 22.9928 22.3905 22.7566 22.3905 22.4652C22.3905 22.1737 22.1543 21.9375 21.8629 21.9375Z" fill="#363636"/>
<path d="M21.8629 24.0481H15.5784C15.287 24.0481 15.0508 24.2843 15.0508 24.5758C15.0508 24.8672 15.287 25.1034 15.5784 25.1034H21.8629C22.1543 25.1034 22.3905 24.8672 22.3905 24.5758C22.3905 24.2843 22.1543 24.0481 21.8629 24.0481Z" fill="#363636"/>
<path d="M31.4505 39.4399C31.7419 39.4399 31.9782 39.2036 31.9782 38.9122C31.9782 38.6208 31.7419 38.3845 31.4505 38.3845C31.1591 38.3845 30.9229 38.6208 30.9229 38.9122C30.9229 39.2036 31.1591 39.4399 31.4505 39.4399Z" fill="#363636"/>
<path d="M17.7061 28.5892C18.625 28.2468 19.214 28.8763 19.281 28.9528C19.4683 29.172 19.7978 29.1995 20.0189 29.0134C20.2409 28.8266 20.2694 28.4951 20.0826 28.2731C20.05 28.2344 19.4673 27.5592 18.5072 27.4498V27.2628C18.5072 26.9726 18.272 26.7373 17.9817 26.7373C17.6915 26.7373 17.4563 26.9726 17.4563 27.2628V27.5644C17.4175 27.577 17.3786 27.5898 17.3391 27.6045C16.7234 27.834 16.2774 28.3858 16.175 29.0445C16.0861 29.6167 16.279 30.1513 16.6911 30.4745C17.0512 30.7569 17.5514 30.997 18.4174 31.3032C19.0318 31.5204 19.0183 32.019 18.9839 32.2233C18.9151 32.6323 18.5711 33.0745 17.9781 33.0784C17.4115 33.082 17.2354 33.054 16.7985 32.7683C16.5556 32.6094 16.23 32.6775 16.0711 32.9205C15.9123 33.1633 15.9804 33.4889 16.2232 33.6478C16.6902 33.9532 17.0306 34.0715 17.4563 34.1116V34.417C17.4563 34.7071 17.6916 34.9424 17.9818 34.9424C18.272 34.9424 18.5073 34.7071 18.5073 34.417V34.0619C19.3559 33.8415 19.8998 33.1146 20.0203 32.3976C20.1762 31.4703 19.6728 30.6323 18.7677 30.3124C18.2452 30.1277 17.6669 29.9043 17.3397 29.6477C17.231 29.5624 17.1838 29.3973 17.2135 29.2061C17.2479 28.9838 17.3955 28.705 17.7061 28.5892Z" fill="#363636"/>
</svg>
