<svg width="52" height="52" viewBox="0 0 52 52" fill="none" xmlns="http://www.w3.org/2000/svg">
<circle cx="26" cy="26" r="26" fill="#E1F7FF"/>
<path d="M24.9463 15.711V22.9326C24.9502 26.7696 26.5836 30.4243 29.4398 32.9863C31.0229 34.4033 33.3993 34.4656 35.0545 33.1335L35.2051 33.0128C38.3844 30.453 40.2321 26.59 40.2295 22.5082V15.711C35.2705 14.0501 29.9053 14.0501 24.9463 15.711Z" fill="#FBC050"/>
<path d="M28.7666 25.8369C31.1705 27.0454 34.0043 27.0454 36.4082 25.8369L35.9401 27.2481C35.4627 28.6954 34.1115 29.6739 32.5874 29.6759C31.0633 29.6739 29.7121 28.6954 29.2347 27.2481L28.7666 25.8369Z" fill="#CB3A31"/>
<path d="M27.4927 21.9601C27.2217 21.9596 27.0024 21.7395 27.0029 21.4685C27.0031 21.3724 27.0314 21.2786 27.0844 21.1986C27.9608 19.8763 29.5752 19.2494 31.1143 19.6338L31.4332 19.7138C31.6956 19.7815 31.8534 20.0491 31.7857 20.3115C31.7186 20.5712 31.4554 20.729 31.1947 20.6657L30.8753 20.5857C29.7397 20.3035 28.5492 20.7658 27.9019 21.7407C27.8109 21.8778 27.6572 21.9602 27.4927 21.9601Z" fill="#CB3A31"/>
<path d="M38.3193 22.1388C38.1547 22.1388 38.001 22.0562 37.9101 21.919C37.263 20.9444 36.073 20.482 34.9376 20.7639L34.6172 20.8439C34.3524 20.9014 34.0912 20.7333 34.0337 20.4684C33.9788 20.2155 34.1299 19.9634 34.3788 19.8925L34.6987 19.8121C36.2374 19.4287 37.8509 20.0554 38.7275 21.3768C38.8774 21.6026 38.8158 21.9071 38.5901 22.0569C38.5098 22.1102 38.4156 22.1387 38.3193 22.1388Z" fill="#CB3A31"/>
<path d="M24.9458 19.761C20.5842 20.7933 16.0209 20.5865 11.7705 19.1638V26.3673C11.7686 30.2054 13.4031 33.8624 16.264 36.421C17.8472 37.838 20.2235 37.9003 21.8787 36.5682L22.0293 36.4475C24.2658 34.6463 25.8672 32.1767 26.5994 29.4001C25.5155 27.417 24.947 25.1935 24.9458 22.9336V19.761Z" fill="#0594C2"/>
<path d="M16.0721 33.2086C16.4117 33.7223 17.0817 33.901 17.632 33.6247C18.6288 33.1238 19.8038 33.1238 20.8007 33.6247C21.351 33.901 22.0209 33.7223 22.3605 33.2086C22.7354 32.6459 22.5842 31.8859 22.0224 31.5095C20.3249 30.3712 18.1078 30.3712 16.4102 31.5095C15.8485 31.8859 15.6972 32.6459 16.0721 33.2086Z" fill="#31C9F9"/>
<path d="M23.2971 26.2334L22.3388 28.4694C22.1128 28.999 22.3589 29.6116 22.8886 29.8376C23.0178 29.8926 23.1567 29.9211 23.2971 29.9212C23.8729 29.9212 24.3397 29.4543 24.3396 28.8784C24.3396 28.7373 24.3109 28.5976 24.2554 28.4679L23.2971 26.2334Z" fill="#B8EDFE"/>
<path d="M30.8757 20.5857L31.1951 20.6657C31.4584 20.7297 31.7237 20.5681 31.7878 20.3047C31.8511 20.0441 31.6934 19.7808 31.4336 19.7138L31.1146 19.6338C29.5756 19.2494 27.9612 19.8763 27.0848 21.1986C26.9417 21.4287 27.0122 21.7312 27.2423 21.8743C27.463 22.0116 27.7524 21.953 27.9023 21.7407C28.5496 20.7659 29.74 20.3035 30.8757 20.5857Z" fill="#363636"/>
<path d="M36.1884 25.3983C33.9218 26.5313 31.2541 26.5313 28.9874 25.3983C28.7456 25.2761 28.4504 25.373 28.3282 25.6149C28.2692 25.7315 28.2592 25.867 28.3004 25.991L28.769 27.4022C29.4617 29.511 31.7327 30.659 33.8415 29.9664C35.0552 29.5677 36.0071 28.6159 36.4057 27.4022L36.8738 25.991C36.9593 25.7339 36.8202 25.4562 36.5631 25.3707C36.439 25.3294 36.3036 25.3394 36.1869 25.3983H36.1884ZM35.475 27.0936C34.9524 28.688 33.2362 29.557 31.6416 29.0343C30.7227 28.7331 30.002 28.0125 29.7009 27.0936L29.5748 26.7133C31.5247 27.4002 33.6507 27.4002 35.6006 26.7133L35.475 27.0936Z" fill="#363636"/>
<path d="M34.6174 20.8439L34.9378 20.7639C36.0731 20.482 37.2632 20.9444 37.9102 21.9189C38.0533 22.1491 38.356 22.2196 38.586 22.0764C38.8161 21.9333 38.8867 21.6307 38.7435 21.4007C38.7385 21.3926 38.7332 21.3846 38.7276 21.3768C37.8506 20.0559 36.2372 19.4299 34.6988 19.8135L34.3789 19.894C34.1207 19.9763 33.9781 20.2523 34.0604 20.5105C34.1356 20.7461 34.3743 20.889 34.6174 20.8439Z" fill="#363636"/>
<path d="M40.3851 15.2459C35.3232 13.5619 29.8521 13.5619 24.7902 15.2459C24.5904 15.3129 24.4556 15.5002 24.4556 15.711V19.3655C20.2958 20.2808 15.9656 20.0504 11.9265 18.6987C11.6695 18.6128 11.3915 18.7515 11.3056 19.0085C11.2889 19.0586 11.2803 19.111 11.2803 19.1638V26.3673C11.2802 30.3449 12.974 34.1342 15.9377 36.7871C17.7003 38.3636 20.3451 38.4324 22.1873 36.9495L22.3374 36.8288C24.3637 35.2056 25.8916 33.0445 26.746 30.5929C27.4102 31.6128 28.2061 32.5407 29.113 33.3524C30.8755 34.9289 33.5202 34.9977 35.3621 33.5148L35.5123 33.3941C38.8155 30.748 40.7326 26.7406 40.7202 22.5082V15.711C40.7201 15.5 40.5851 15.3127 40.3851 15.2459ZM21.7221 36.0648L21.5749 36.1855C20.1057 37.3682 17.9962 37.3127 16.5912 36.0545C13.8359 33.5882 12.2613 30.0652 12.2616 26.3673V19.8356C16.2159 21.0398 20.4104 21.2254 24.4556 20.3753V22.9346C24.4556 23.2215 24.4646 23.5084 24.4826 23.7952C24.4885 23.8904 24.5012 23.9846 24.5091 24.0798C24.5248 24.2702 24.5395 24.4611 24.5631 24.6509C24.5778 24.7663 24.5989 24.8801 24.6161 24.9944C24.6416 25.1632 24.6651 25.3325 24.6965 25.5003C24.7191 25.622 24.749 25.7427 24.775 25.8639C24.8094 26.0228 24.8413 26.1823 24.881 26.3398C24.9129 26.4654 24.9512 26.5896 24.986 26.7142C25.0287 26.8653 25.0694 27.0169 25.117 27.1666C25.1573 27.2932 25.2034 27.4178 25.2471 27.5429C25.2961 27.6901 25.3476 27.8349 25.4036 27.9791C25.4526 28.1047 25.5061 28.2279 25.5581 28.3515C25.6175 28.4929 25.6754 28.6342 25.7392 28.773C25.7961 28.8972 25.8584 29.0184 25.9193 29.1415C25.9718 29.2475 26.0174 29.3554 26.0748 29.4604C25.3531 32.0642 23.8303 34.3748 21.7221 36.0648ZM39.7388 22.5082C39.7501 26.4433 37.968 30.1691 34.8975 32.6301L34.7473 32.7508C33.2787 33.9321 31.171 33.8766 29.7666 32.6198C28.6633 31.633 27.7379 30.4639 27.0306 29.1636C26.2503 27.7326 25.7443 26.1683 25.539 24.5513C25.4711 24.0142 25.4371 23.4735 25.4369 22.9321V16.0673C30.0908 14.5962 35.085 14.5962 39.7388 16.0673V22.5082Z" fill="#363636"/>
<path d="M17.1135 24.8724L17.327 24.55C17.4768 24.324 17.4151 24.0193 17.1891 23.8694C16.9631 23.7196 16.6584 23.7813 16.5085 24.0073L16.2956 24.3297C15.7272 25.19 14.765 25.7075 13.7338 25.7075C13.4629 25.7075 13.2432 25.9272 13.2432 26.1981C13.2432 26.4691 13.4629 26.6888 13.7338 26.6888C15.094 26.6892 16.3634 26.007 17.1135 24.8724Z" fill="#363636"/>
<path d="M22.2949 31.1031C20.4335 29.8494 17.998 29.8494 16.1366 31.1031C15.3494 31.6321 15.1401 32.6991 15.6691 33.4863C15.9869 33.9593 16.5186 34.2438 17.0885 34.2458C17.3538 34.2457 17.6155 34.1835 17.8525 34.0642C18.7112 33.6359 19.7213 33.6359 20.5801 34.0642C21.4251 34.4914 22.4564 34.1528 22.8836 33.3078C23.2765 32.5307 23.0244 31.5825 22.2974 31.1031H22.2949ZM21.9515 32.9387C21.748 33.245 21.3482 33.3516 21.0192 33.1874C19.883 32.62 18.5461 32.62 17.4099 33.1874C17.0809 33.3523 16.6807 33.2455 16.4776 32.9387C16.2522 32.601 16.3429 32.1445 16.6803 31.9186C18.2114 30.8876 20.2147 30.8876 21.7459 31.9186C22.0843 32.1435 22.1763 32.6002 21.9515 32.9387Z" fill="#363636"/>
<path d="M24.7068 28.2759L23.7486 26.0404L23.7436 26.0321C23.6752 25.838 23.4921 25.708 23.2863 25.7073C22.2553 25.7074 21.2931 25.1899 20.7251 24.3295L20.5111 24.0071C20.3613 23.7812 20.0567 23.7196 19.8308 23.8695C19.6049 24.0193 19.5434 24.3239 19.6932 24.5498L19.9071 24.8721C20.5241 25.8018 21.4976 26.4353 22.5975 26.6228L21.8884 28.2759C21.5547 29.0541 21.915 29.9557 22.6933 30.2895C23.4715 30.6232 24.373 30.2629 24.7068 29.4846C24.8724 29.0987 24.8724 28.6618 24.7068 28.2759ZM23.7584 29.1851C23.5764 29.4394 23.2227 29.4981 22.9684 29.3161C22.9179 29.2799 22.8736 29.2357 22.8374 29.1851C22.733 29.0312 22.7145 28.8346 22.7883 28.664L23.2957 27.48L23.803 28.664C23.8785 28.8339 23.8616 29.0305 23.7584 29.1851Z" fill="#363636"/>
</svg>
