<svg width="20" height="20" viewBox="0 0 20 20" fill="none" xmlns="http://www.w3.org/2000/svg">
<path d="M18.125 3.125H1.875C1.5293 3.125 1.25 3.4043 1.25 3.75V16.25C1.25 16.5957 1.5293 16.875 1.875 16.875H18.125C18.4707 16.875 18.75 16.5957 18.75 16.25V3.75C18.75 3.4043 18.4707 3.125 18.125 3.125ZM17.3438 5.28906V15.4688H2.65625V5.28906L2.11719 4.86914L2.88477 3.88281L3.7207 4.5332H16.2812L17.1172 3.88281L17.8848 4.86914L17.3438 5.28906V5.28906ZM16.2812 4.53125L10 9.41406L3.71875 4.53125L2.88281 3.88086L2.11523 4.86719L2.6543 5.28711L9.32617 10.4746C9.51805 10.6237 9.7541 10.7046 9.99707 10.7046C10.24 10.7046 10.4761 10.6237 10.668 10.4746L17.3438 5.28906L17.8828 4.86914L17.1152 3.88281L16.2812 4.53125Z" fill="white"/>
</svg>
