<svg width="24" height="24" viewBox="0 0 24 24" fill="none" xmlns="http://www.w3.org/2000/svg">
<g clip-path="url(#clip0)">
<path d="M23.3999 10.392C23.3992 10.3914 23.3987 10.3907 23.3981 10.3902L13.608 0.600404C13.1907 0.182923 12.6359 -0.046875 12.0457 -0.046875C11.4556 -0.046875 10.9008 0.182923 10.4833 0.600404L0.698299 10.3852C0.695003 10.3885 0.691524 10.392 0.688411 10.3953C-0.168524 11.2572 -0.16706 12.6555 0.692622 13.5152C1.08538 13.9082 1.60394 14.1356 2.15857 14.1596C2.18127 14.1618 2.20398 14.1629 2.22687 14.1629H2.61688V21.3673C2.61688 22.7932 3.77704 23.9532 5.20289 23.9532H9.03309C9.42146 23.9532 9.73622 23.6382 9.73622 23.25V17.6016C9.73622 16.951 10.2656 16.4218 10.9162 16.4218H13.1753C13.8259 16.4218 14.3551 16.951 14.3551 17.6016V23.25C14.3551 23.6382 14.6698 23.9532 15.0582 23.9532H18.8884C20.3144 23.9532 21.4744 22.7932 21.4744 21.3673V14.1629H21.8362C22.4262 14.1629 22.981 13.9331 23.3987 13.5154C24.2593 12.6544 24.2596 11.2535 23.3999 10.392ZM22.4042 12.5211C22.2524 12.6729 22.0506 12.7566 21.8362 12.7566H20.7713C20.3829 12.7566 20.0681 13.0714 20.0681 13.4597V21.3673C20.0681 22.0177 19.539 22.5469 18.8884 22.5469H15.7613V17.6016C15.7613 16.1758 14.6013 15.0156 13.1753 15.0156H10.9162C9.49012 15.0156 8.32997 16.1758 8.32997 17.6016V22.5469H5.20289C4.55249 22.5469 4.02313 22.0177 4.02313 21.3673V13.4597C4.02313 13.0714 3.70838 12.7566 3.32001 12.7566H2.27338C2.26239 12.7559 2.25159 12.7553 2.24042 12.7552C2.03094 12.7515 1.83447 12.6684 1.68725 12.521C1.37414 12.2078 1.37414 11.6983 1.68725 11.385C1.68744 11.385 1.68744 11.3848 1.68762 11.3846L1.68817 11.3841L11.4779 1.59467C11.6295 1.44287 11.8311 1.35938 12.0457 1.35938C12.2601 1.35938 12.4617 1.44287 12.6135 1.59467L22.4011 11.382C22.4026 11.3835 22.4042 11.385 22.4057 11.3864C22.7171 11.7001 22.7166 12.2086 22.4042 12.5211Z" fill="#A0A0A0"/>
</g>
<defs>
<clipPath id="clip0">
<rect width="24" height="24" fill="white"/>
</clipPath>
</defs>
</svg>
