<svg width="25" height="25" viewBox="0 0 25 25" fill="none" xmlns="http://www.w3.org/2000/svg">
<path d="M17.21 10.7422C17.21 10.2028 16.7728 9.76562 16.2334 9.76562H6.17481C5.63545 9.76562 5.19824 10.2028 5.19824 10.7422C5.19824 11.2815 5.63545 11.7188 6.17481 11.7188H16.2334C16.7728 11.7188 17.21 11.2815 17.21 10.7422Z" fill="#8C8C8C"/>
<path d="M6.1748 13.6719C5.63545 13.6719 5.19824 14.1091 5.19824 14.6484C5.19824 15.1878 5.63545 15.625 6.1748 15.625H12.2837C12.8231 15.625 13.2603 15.1878 13.2603 14.6484C13.2603 14.1091 12.8231 13.6719 12.2837 13.6719H6.1748Z" fill="#8C8C8C"/>
<path d="M8.46968 23.0469H5.20361C4.12666 23.0469 3.25049 22.1707 3.25049 21.0938V3.90625C3.25049 2.8293 4.12666 1.95312 5.20361 1.95312H17.2099C18.2869 1.95312 19.163 2.8293 19.163 3.90625V9.91211C19.163 10.4515 19.6002 10.8887 20.1396 10.8887C20.679 10.8887 21.1162 10.4515 21.1162 9.91211V3.90625C21.1162 1.75234 19.3638 0 17.2099 0H5.20361C3.04971 0 1.29736 1.75234 1.29736 3.90625V21.0938C1.29736 23.2477 3.04971 25 5.20361 25H8.46968C9.00903 25 9.44624 24.5628 9.44624 24.0234C9.44624 23.4841 9.00903 23.0469 8.46968 23.0469Z" fill="#8C8C8C"/>
<path d="M22.8459 14.1393C21.7036 12.997 19.845 12.9969 18.7035 14.1385L13.342 19.4881C13.2281 19.6017 13.1442 19.7417 13.0974 19.8956L11.9298 23.7396C11.8262 24.0804 11.9164 24.4505 12.1652 24.7054C12.3515 24.8964 12.6046 25 12.8642 25C12.9511 25 13.0388 24.9884 13.1249 24.9645L17.0665 23.8727C17.2287 23.8277 17.3766 23.7417 17.4957 23.6227L22.846 18.2825C23.9883 17.1402 23.9883 15.2817 22.8459 14.1393ZM16.2977 22.059L14.3147 22.6083L14.895 20.6977L18.5126 17.0881L19.894 18.4694L16.2977 22.059ZM21.4656 16.9009L21.2764 17.0897L19.8953 15.7086L20.0839 15.5204C20.4646 15.1397 21.0842 15.1397 21.4649 15.5204C21.8457 15.9012 21.8457 16.5207 21.4656 16.9009Z" fill="#8C8C8C"/>
<path d="M16.2334 5.85938H6.17481C5.63545 5.85938 5.19824 6.29658 5.19824 6.83594C5.19824 7.37529 5.63545 7.8125 6.17481 7.8125H16.2334C16.7728 7.8125 17.21 7.37529 17.21 6.83594C17.21 6.29658 16.7728 5.85938 16.2334 5.85938Z" fill="#8C8C8C"/>
</svg>
