<svg width="27" height="27" viewBox="0 0 27 27" fill="none" xmlns="http://www.w3.org/2000/svg">
<path d="M10.8992 13.5057L20.9999 3.40463C21.278 3.12717 21.431 2.7562 21.431 2.36063C21.431 1.96485 21.278 1.5941 20.9999 1.3162L20.1148 0.431561C19.8371 0.15322 19.4659 0 19.0704 0C18.6748 0 18.304 0.15322 18.0261 0.431561L5.99972 12.4578C5.72072 12.7365 5.56794 13.109 5.56904 13.505C5.56794 13.9028 5.7205 14.2749 5.99972 14.5539L18.0149 26.5684C18.2928 26.8468 18.6636 27 19.0594 27C19.4549 27 19.8257 26.8468 20.1038 26.5684L20.9887 25.6838C21.5644 25.108 21.5644 24.1707 20.9887 23.5951L10.8992 13.5057Z" fill="black"/>
</svg>
