<svg width="40" height="40" viewBox="0 0 40 40" fill="none" xmlns="http://www.w3.org/2000/svg">
<rect width="40" height="40" rx="15" fill="#EBEBEB" fill-opacity="0.5"/>
<g clip-path="url(#clip0)">
<path d="M20.6276 30H19.3724C18.3572 30 17.5312 29.1741 17.5312 28.1589V27.7342C17.0996 27.5963 16.6803 27.4223 16.2774 27.2138L15.9765 27.5147C15.2476 28.2445 14.0801 28.2231 13.3724 27.5145L12.4852 26.6273C11.7763 25.9192 11.7559 24.752 12.4855 24.0232L12.7862 23.7225C12.5777 23.3197 12.4037 22.9004 12.2657 22.4688H11.8411C10.826 22.4688 10 21.6428 10 20.6276V19.3724C10 18.3572 10.826 17.5312 11.8412 17.5312H12.2658C12.4037 17.0996 12.5777 16.6803 12.7862 16.2775L12.4853 15.9766C11.7561 15.2482 11.7763 14.0809 12.4855 13.3725L13.3727 12.4853C14.0821 11.775 15.2493 11.7572 15.9768 12.4855L16.2775 12.7862C16.6803 12.5777 17.0996 12.4037 17.5312 12.2657V11.8411C17.5312 10.8259 18.3572 10 19.3724 10H20.6276C21.6428 10 22.4688 10.8259 22.4688 11.8411V12.2658C22.9004 12.4037 23.3197 12.5777 23.7225 12.7862L24.0235 12.4853C24.7523 11.7555 25.9199 11.7769 26.6276 12.4855L27.5147 13.3727C28.2237 14.0808 28.2441 15.248 27.5145 15.9768L27.2138 16.2775C27.4223 16.6803 27.5963 17.0996 27.7342 17.5312H28.1588C29.174 17.5312 30 18.3572 30 19.3724V20.6276C30 21.6428 29.174 22.4688 28.1588 22.4688H27.7342C27.5963 22.9004 27.4223 23.3197 27.2138 23.7225L27.5147 24.0235C28.2439 24.7518 28.2237 25.9191 27.5145 26.6276L26.6273 27.5148C25.9179 28.2251 24.7507 28.2428 24.0232 27.5145L23.7225 27.2139C23.3197 27.4223 22.9004 27.5964 22.4688 27.7343V28.1589C22.4688 29.1741 21.6428 30 20.6276 30ZM16.4733 25.9832C17.033 26.3142 17.6353 26.5642 18.2636 26.7264C18.5223 26.7931 18.7031 27.0265 18.7031 27.2937V28.1589C18.7031 28.5279 19.0034 28.8281 19.3724 28.8281H20.6276C20.9966 28.8281 21.2969 28.5279 21.2969 28.1589V27.2937C21.2969 27.0265 21.4777 26.7931 21.7364 26.7264C22.3647 26.5642 22.9671 26.3142 23.5267 25.9832C23.757 25.847 24.0502 25.8841 24.2393 26.0732L24.8521 26.6861C25.1164 26.9506 25.5407 26.9445 25.7984 26.6864L26.6862 25.7986C26.9433 25.5418 26.9519 25.1175 26.6864 24.8523L26.0733 24.2393C25.8842 24.0501 25.8471 23.7569 25.9833 23.5267C26.3143 22.9671 26.5643 22.3647 26.7264 21.7364C26.7932 21.4777 27.0266 21.2969 27.2938 21.2969H28.1589C28.5279 21.2969 28.8282 20.9967 28.8282 20.6277V19.3724C28.8282 19.0034 28.5279 18.7032 28.1589 18.7032H27.2938C27.0265 18.7032 26.7932 18.5224 26.7264 18.2637C26.5643 17.6354 26.3142 17.033 25.9833 16.4734C25.8471 16.2432 25.8842 15.95 26.0733 15.7608L26.6862 15.148C26.9511 14.8834 26.9442 14.4591 26.6864 14.2017L25.7987 13.314C25.5414 13.0563 25.117 13.0488 24.8524 13.3138L24.2394 13.9268C24.0502 14.116 23.757 14.153 23.5268 14.0169C22.9671 13.6859 22.3648 13.4359 21.7365 13.2737C21.4777 13.207 21.297 12.9736 21.297 12.7064V11.8411C21.297 11.4721 20.9967 11.1719 20.6277 11.1719H19.3725C19.0034 11.1719 18.7032 11.4721 18.7032 11.8411V12.7063C18.7032 12.9735 18.5224 13.2069 18.2636 13.2736C17.6354 13.4358 17.033 13.6858 16.4734 14.0168C16.243 14.1529 15.9499 14.1159 15.7607 13.9268L15.1479 13.3139C14.8837 13.0494 14.4594 13.0555 14.2017 13.3136L13.3139 14.2014C13.0568 14.4582 13.0482 14.8825 13.3137 15.1477L13.9268 15.7607C14.1159 15.9499 14.1529 16.2431 14.0168 16.4733C13.6858 17.0329 13.4358 17.6353 13.2737 18.2636C13.2069 18.5223 12.9735 18.7031 12.7063 18.7031H11.8412C11.4721 18.7031 11.1719 19.0034 11.1719 19.3724V20.6276C11.1719 20.9966 11.4721 21.2969 11.8412 21.2969H12.7063C12.9735 21.2969 13.2068 21.4777 13.2736 21.7364C13.4358 22.3647 13.6858 22.967 14.0168 23.5266C14.1529 23.7569 14.1159 24.0501 13.9267 24.2392L13.3139 24.8521C13.0489 25.1167 13.0559 25.5409 13.3136 25.7984L14.2013 26.6861C14.4586 26.9437 14.883 26.9513 15.1476 26.6863L15.7607 26.0732C15.9 25.9339 16.19 25.8156 16.4733 25.9832Z" fill="#737070"/>
<path d="M20 24.3516C17.6005 24.3516 15.6484 22.3995 15.6484 20C15.6484 17.6005 17.6005 15.6484 20 15.6484C22.3995 15.6484 24.3516 17.6005 24.3516 20C24.3516 22.3995 22.3995 24.3516 20 24.3516ZM20 16.8203C18.2467 16.8203 16.8203 18.2467 16.8203 20C16.8203 21.7533 18.2467 23.1797 20 23.1797C21.7533 23.1797 23.1797 21.7533 23.1797 20C23.1797 18.2467 21.7533 16.8203 20 16.8203Z" fill="#737070"/>
</g>
<defs>
<clipPath id="clip0">
<rect width="20" height="20" fill="white" transform="translate(10 10)"/>
</clipPath>
</defs>
</svg>
