<svg width="40" height="40" viewBox="0 0 40 40" fill="none" xmlns="http://www.w3.org/2000/svg">
<rect width="40" height="40" rx="15" fill="#EBEBEB" fill-opacity="0.5"/>
<path d="M20 10C14.4731 10 10 14.4725 10 20C10 25.5269 14.4725 30 20 30C25.5269 30 30 25.5275 30 20C30 14.4731 25.5275 10 20 10ZM20 28.6046C15.2554 28.6046 11.3954 24.7446 11.3954 20C11.3954 15.2554 15.2554 11.3954 20 11.3954C24.7446 11.3954 28.6046 15.2554 28.6046 20C28.6046 24.7446 24.7446 28.6046 20 28.6046Z" fill="#737070"/>
<path d="M20 17.9535C19.6147 17.9535 19.3023 18.2659 19.3023 18.6511V24.3721C19.3023 24.7574 19.6147 25.0697 20 25.0697C20.3853 25.0697 20.6976 24.7573 20.6976 24.3721V18.6512C20.6976 18.2659 20.3853 17.9535 20 17.9535Z" fill="#737070"/>
<path d="M20 14.9302C19.6147 14.9302 19.3023 15.2426 19.3023 15.6279V16.4651C19.3023 16.8504 19.6147 17.1628 20 17.1628C20.3853 17.1628 20.6976 16.8504 20.6976 16.4651V15.6279C20.6976 15.2426 20.3853 14.9302 20 14.9302Z" fill="#737070"/>
</svg>
