<svg width="18" height="18" viewBox="0 0 18 18" fill="none" xmlns="http://www.w3.org/2000/svg">
<path d="M16.0711 0H7.71391C6.64879 0 5.78535 0.863449 5.78535 1.92857V5.78571C5.78535 6.14076 6.07316 6.42858 6.42821 6.42858C6.78327 6.42858 7.07108 6.14076 7.07108 5.78571V1.92857C7.07108 1.57352 7.3589 1.2857 7.71395 1.2857H16.0711C16.4261 1.2857 16.714 1.57352 16.714 1.92857V16.0714C16.714 16.4265 16.4261 16.7143 16.0711 16.7143H7.71391C7.35886 16.7143 7.07105 16.4265 7.07105 16.0714V12.2143C7.07105 11.8592 6.78323 11.5714 6.42818 11.5714C6.07313 11.5714 5.78531 11.8592 5.78531 12.2143V16.0714C5.78531 17.1365 6.64876 18 7.71388 18H16.071C17.1361 18 17.9996 17.1365 17.9996 16.0714V1.92857C17.9996 0.863449 17.1362 0 16.0711 0Z" fill="#737070"/>
<path d="M12.8569 8.35715H2.1945L4.31145 6.2402C4.5581 5.98482 4.55101 5.57786 4.29563 5.33122C4.0465 5.09063 3.65155 5.09063 3.40246 5.33122L0.188152 8.54548C0.128449 8.60522 0.0812517 8.67623 0.0493097 8.75442C-0.0157042 8.91168 -0.0157042 9.08831 0.0493097 9.24557C0.0814024 9.32403 0.128826 9.39526 0.188792 9.45515L3.40306 12.6694C3.64971 12.9248 4.05667 12.9319 4.31205 12.6852C4.56744 12.4386 4.57452 12.0316 4.32787 11.7762C4.32271 11.7709 4.31744 11.7656 4.31205 11.7604L2.1945 9.64284H12.8569C13.212 9.64284 13.4998 9.35503 13.4998 8.99998C13.4998 8.64492 13.212 8.35715 12.8569 8.35715Z" fill="#737070"/>
</svg>
