<svg width="30" height="30" viewBox="0 0 30 30" fill="none" xmlns="http://www.w3.org/2000/svg">
<circle cx="15" cy="15" r="15" fill="#DEDEDE"/>
<path d="M14.984 9.672C15.6667 9.672 16.2693 9.80533 16.792 10.072C17.3253 10.3387 17.736 10.7227 18.024 11.224C18.3227 11.7147 18.472 12.2853 18.472 12.936C18.472 14.088 18.1147 14.936 17.4 15.48C16.696 16.0133 15.7307 16.28 14.504 16.28L14.456 18.04H13.496L13.432 15.48H13.848C14.9467 15.48 15.8107 15.3093 16.44 14.968C17.08 14.616 17.4 13.9387 17.4 12.936C17.4 12.232 17.176 11.672 16.728 11.256C16.2907 10.84 15.7093 10.632 14.984 10.632C14.2587 10.632 13.6827 10.8293 13.256 11.224C12.8293 11.6187 12.616 12.1573 12.616 12.84H11.544C11.544 12.2 11.688 11.6453 11.976 11.176C12.2747 10.696 12.68 10.328 13.192 10.072C13.7147 9.80533 14.312 9.672 14.984 9.672ZM13.976 21.08C13.7413 21.08 13.544 21 13.384 20.84C13.2347 20.68 13.16 20.4827 13.16 20.248C13.16 20.0133 13.2347 19.8213 13.384 19.672C13.544 19.512 13.7413 19.432 13.976 19.432C14.2 19.432 14.3867 19.512 14.536 19.672C14.696 19.8213 14.776 20.0133 14.776 20.248C14.776 20.4827 14.696 20.68 14.536 20.84C14.3867 21 14.2 21.08 13.976 21.08Z" fill="#8C8C8C"/>
</svg>
