<svg width="40" height="40" viewBox="0 0 40 40" fill="none" xmlns="http://www.w3.org/2000/svg">
<rect width="40" height="40" rx="15" fill="#EBEBEB" fill-opacity="0.5"/>
<path d="M27.1154 12.7308H12.8846C11.294 12.7308 10 14.0248 10 15.6154V26.3846C10 27.9752 11.294 29.2692 12.8846 29.2692H27.1154C28.706 29.2692 30 27.9752 30 26.3846V15.6154C30 14.0248 28.706 12.7308 27.1154 12.7308ZM28.8462 22.7308H24.6154C23.6611 22.7308 22.8846 21.9544 22.8846 21C22.8846 20.0456 23.661 19.2692 24.6154 19.2692H28.8462V22.7308ZM28.8462 18.1154H24.6154C23.0248 18.1154 21.7308 19.4094 21.7308 21C21.7308 22.5906 23.0248 23.8846 24.6154 23.8846H28.8462V26.3846C28.8462 27.339 28.0698 28.1154 27.1154 28.1154H12.8846C11.9303 28.1154 11.1538 27.339 11.1538 26.3846V15.6154C11.1538 14.6611 11.9302 13.8846 12.8846 13.8846H27.1154C28.0697 13.8846 28.8462 14.661 28.8462 15.6154V18.1154Z" fill="#737070"/>
<path d="M25.3846 20.4231H24.6154C24.2967 20.4231 24.0385 20.6814 24.0385 21C24.0385 21.3186 24.2968 21.5769 24.6154 21.5769H25.3846C25.7032 21.5769 25.9615 21.3186 25.9615 21C25.9615 20.6814 25.7032 20.4231 25.3846 20.4231Z" fill="#737070"/>
</svg>
