<svg width="24" height="24" viewBox="0 0 24 24" fill="none" xmlns="http://www.w3.org/2000/svg">
<path d="M20.1207 17.8969C19.6785 16.8496 19.0369 15.8984 18.2316 15.0961C17.4287 14.2915 16.4776 13.65 15.4308 13.207C15.4214 13.2023 15.4121 13.2 15.4027 13.1953C16.8629 12.1406 17.8121 10.4227 17.8121 8.48438C17.8121 5.27344 15.2105 2.67188 11.9996 2.67188C8.78863 2.67188 6.18707 5.27344 6.18707 8.48438C6.18707 10.4227 7.13629 12.1406 8.59645 13.1977C8.58707 13.2023 8.5777 13.2047 8.56832 13.2094C7.51832 13.6523 6.57613 14.2875 5.76754 15.0984C4.96295 15.9013 4.32146 16.8524 3.87848 17.8992C3.44329 18.924 3.20859 20.0228 3.18707 21.1359C3.18644 21.161 3.19083 21.1858 3.19997 21.2091C3.20912 21.2324 3.22283 21.2537 3.2403 21.2716C3.25778 21.2895 3.27866 21.3037 3.30172 21.3134C3.32478 21.3231 3.34955 21.3281 3.37457 21.3281H4.78082C4.88395 21.3281 4.96598 21.2461 4.96832 21.1453C5.0152 19.3359 5.74176 17.6414 7.02613 16.357C8.35504 15.0281 10.1199 14.2969 11.9996 14.2969C13.8793 14.2969 15.6441 15.0281 16.973 16.357C18.2574 17.6414 18.9839 19.3359 19.0308 21.1453C19.0332 21.2484 19.1152 21.3281 19.2183 21.3281H20.6246C20.6496 21.3281 20.6744 21.3231 20.6974 21.3134C20.7205 21.3037 20.7414 21.2895 20.7588 21.2716C20.7763 21.2537 20.79 21.2324 20.7992 21.2091C20.8083 21.1858 20.8127 21.161 20.8121 21.1359C20.7886 20.0156 20.5566 18.9258 20.1207 17.8969ZM11.9996 12.5156C10.9238 12.5156 9.91129 12.0961 9.14957 11.3344C8.38785 10.5727 7.96832 9.56016 7.96832 8.48438C7.96832 7.40859 8.38785 6.39609 9.14957 5.63437C9.91129 4.87266 10.9238 4.45312 11.9996 4.45312C13.0754 4.45312 14.0879 4.87266 14.8496 5.63437C15.6113 6.39609 16.0308 7.40859 16.0308 8.48438C16.0308 9.56016 15.6113 10.5727 14.8496 11.3344C14.0879 12.0961 13.0754 12.5156 11.9996 12.5156Z" fill="#363636"/>
</svg>
