<svg width="414" height="168" viewBox="0 0 414 168" fill="none" xmlns="http://www.w3.org/2000/svg">
<rect x="417" y="-384" width="552" height="425" transform="rotate(90 417 -384)" fill="#060039"/>
<mask id="mask0" style="mask-type:alpha" maskUnits="userSpaceOnUse" x="-8" y="-384" width="425" height="552">
<rect x="417" y="-384" width="552" height="425" transform="rotate(90 417 -384)" fill="#060039"/>
</mask>
<g mask="url(#mask0)">
<path d="M100.729 168C89.3845 168 80.1878 159.119 80.1878 148.162C80.1878 137.206 89.3845 128.325 100.729 128.325" stroke="#3FAB64" stroke-width="4" stroke-linecap="round" stroke-linejoin="round"/>
<path d="M399.646 168C399.646 154.28 411.142 143.16 425.323 143.16C439.504 143.16 451 154.28 451 168" stroke="#CB3A31" stroke-width="4" stroke-linecap="round" stroke-linejoin="round"/>
<path d="M290.917 168L350.53 168C362.204 168 371.667 158.731 371.667 147.3C371.667 135.869 362.204 126.6 350.53 126.6L341.303 126.6" stroke="#DA774A" stroke-width="4" stroke-linecap="round" stroke-linejoin="round"/>
<path d="M18.969 68.2391C-7.27954 61.4008 -34.1617 76.1941 -41.0763 101.28C-47.9869 126.365 -32.3122 152.247 -6.06375 159.086C20.1847 165.924 47.0657 151.131 53.9795 126.045" stroke="#3FAB64" stroke-width="4" stroke-linecap="round" stroke-linejoin="round"/>
<path d="M146.417 120.386C134.485 120.386 124.813 129.657 124.813 141.09C124.813 152.523 134.485 161.79 146.417 161.79C158.348 161.79 168.021 152.523 168.021 141.09L168.021 71.745" stroke="#3FAB64" stroke-width="4" stroke-linecap="round" stroke-linejoin="round"/>
<path d="M255.295 -8.12258C255.295 2.83351 246.224 11.7149 235.033 11.7149C223.842 11.7149 214.771 2.83351 214.771 -8.12258C214.771 -19.0787 223.842 -27.9601 235.033 -27.9601L310.75 -27.9601" stroke="#DA774A" stroke-width="4" stroke-linecap="round" stroke-linejoin="round"/>
<path d="M197.063 133.032C197.063 152.347 213.396 168 233.542 168C253.689 168 270.021 152.347 270.021 133.032L270.021 41.385" stroke="#3FAB64" stroke-width="4" stroke-linecap="round" stroke-linejoin="round"/>
<path fill-rule="evenodd" clip-rule="evenodd" d="M392.385 -2.08508C411.261 -2.08508 426.562 12.66 426.562 30.8492L426.562 64.6857C426.562 82.8762 411.261 97.6199 392.385 97.6199V97.6199C373.51 97.6199 358.208 82.8762 358.208 64.6857L358.208 30.8492C358.208 12.66 373.51 -2.08509 392.385 -2.08508V-2.08508Z" stroke="#DA774A" stroke-width="4" stroke-linecap="round" stroke-linejoin="round"/>
<path d="M287.375 -8.12247L287.375 11.2601C287.375 24.2766 297.603 34.83 310.219 34.83C322.835 34.83 333.062 24.2766 333.062 11.2601L333.062 -27.505C333.062 -40.5223 322.835 -51.075 310.219 -51.075" stroke="#3FAB64" stroke-width="4" stroke-linecap="round" stroke-linejoin="round"/>
<path d="M27.1196 116.077C27.1196 127.034 18.0671 135.915 6.90379 135.915C-4.25957 135.915 -13.312 127.034 -13.312 116.077C-13.312 105.121 -4.25957 96.24 6.90379 96.24L138.625 96.24" stroke="#CB3A31" stroke-width="4" stroke-linecap="round" stroke-linejoin="round"/>
<path d="M13.9588 -32.4449C34.6921 -32.4449 51.5005 -16.2829 51.5005 3.654L51.5005 67.26" stroke="#3FAB64" stroke-width="4" stroke-linecap="round" stroke-linejoin="round"/>
<path d="M137.917 71.745L118.879 71.745C99.6621 71.745 84.0836 56.5644 84.0836 37.8357L84.0836 11.37" stroke="#31C9F9" stroke-width="4" stroke-linecap="round" stroke-linejoin="round"/>
<path d="M232.834 135.915L232.834 106.933C232.834 85.9736 215.233 68.985 193.521 68.985" stroke="#DA774A" stroke-width="4" stroke-linecap="round" stroke-linejoin="round"/>
<path d="M246.646 43.3847C247.751 43.3847 248.646 42.4892 248.646 41.3847C248.646 40.2801 247.751 39.3847 246.646 39.3847L246.646 43.3847ZM196.238 41.3847L196.238 39.3847L196.238 41.3847ZM116.859 1.90936C116.859 0.804788 115.964 -0.0906429 114.859 -0.090643C113.755 -0.090643 112.859 0.804787 112.859 1.90936L116.859 1.90936ZM69.7923 -54.87C69.7923 -55.9746 68.8969 -56.87 67.7923 -56.87C66.6878 -56.87 65.7923 -55.9746 65.7923 -54.87L69.7923 -54.87ZM103.231 -9.06861C104.335 -9.06861 105.231 -9.96404 105.231 -11.0686C105.231 -12.1732 104.335 -13.0686 103.231 -13.0686L103.231 -9.06861ZM246.646 39.3847L196.238 39.3847L196.238 43.3847L246.646 43.3847L246.646 39.3847ZM196.238 39.3847C189.377 39.3847 183.881 33.9344 183.881 27.2863L179.881 27.2863C179.881 36.2112 187.236 43.3847 196.238 43.3847L196.238 39.3847ZM183.881 27.2863C183.881 18.3606 176.521 11.188 167.52 11.188L167.52 15.188C174.382 15.188 179.881 20.6392 179.881 27.2863L183.881 27.2863ZM167.52 11.188L164.541 11.188L164.541 15.188L167.52 15.188L167.52 11.188ZM164.541 11.188C155.54 11.188 148.179 18.3605 148.179 27.2863L152.179 27.2863C152.179 20.6393 157.679 15.188 164.541 15.188L164.541 11.188ZM148.179 27.2863C148.179 33.9335 142.679 39.3847 135.817 39.3847L135.817 43.3847C144.818 43.3847 152.179 36.2121 152.179 27.2863L148.179 27.2863ZM135.817 39.3847L132.519 39.3847L132.519 43.3847L135.817 43.3847L135.817 39.3847ZM132.519 39.3847C123.835 39.3847 116.859 32.4839 116.859 24.0489L112.859 24.0489C112.859 34.7626 121.696 43.3847 132.519 43.3847L132.519 39.3847ZM116.859 24.0489L116.859 15.0678L112.859 15.0678L112.859 24.0489L116.859 24.0489ZM116.859 15.0678L116.859 1.90936L112.859 1.90936L112.859 15.0678L116.859 15.0678ZM65.7923 -54.87L65.7923 -45.6323L69.7923 -45.6323L69.7923 -54.87L65.7923 -54.87ZM65.7923 -45.6323C65.7923 -25.3918 82.6015 -9.06861 103.231 -9.06861L103.231 -13.0686C84.7157 -13.0686 69.7923 -27.6946 69.7923 -45.6323L65.7923 -45.6323Z" fill="#CDAA2E"/>
<path d="M316.445 126.945L309.262 126.945C299.13 126.945 290.917 118.919 290.917 109.025V109.025C290.917 99.1264 299.13 91.1005 309.262 91.1005L315.212 91.1005C325.266 91.1005 333.417 83.1369 333.417 73.3173V73.3173C333.417 63.4936 325.266 55.53 315.212 55.53L307.889 55.53" stroke="#CB3A31" stroke-width="4" stroke-linecap="round" stroke-linejoin="round"/>
<path fill-rule="evenodd" clip-rule="evenodd" d="M-0.904381 -8.29505C13.3666 -8.29504 24.938 2.98076 24.938 16.89V16.89C24.938 30.7979 13.3666 42.075 -0.904383 42.075L-19.6988 42.0749C-33.9698 42.0749 -45.5412 30.7979 -45.5412 16.89V16.89C-45.5412 2.98075 -33.9698 -8.29505 -19.6988 -8.29505L-0.904381 -8.29505Z" stroke="#31C9F9" stroke-width="4" stroke-linecap="round" stroke-linejoin="round"/>
</g>
</svg>
