<svg width="24" height="24" viewBox="0 0 24 24" fill="none" xmlns="http://www.w3.org/2000/svg">
<path d="M21.6758 14.6634L20.1406 13.3509C20.2133 12.9055 20.2508 12.4509 20.2508 11.9962C20.2508 11.5415 20.2133 11.0868 20.1406 10.6415L21.6758 9.32898C21.7916 9.22985 21.8745 9.09783 21.9134 8.95046C21.9523 8.80309 21.9455 8.64736 21.8938 8.50398L21.8727 8.44304C21.45 7.26185 20.8172 6.16687 20.0047 5.21101L19.9625 5.16179C19.8639 5.0459 19.7326 4.96259 19.5857 4.92284C19.4389 4.88309 19.2834 4.88878 19.1398 4.93914L17.2344 5.61648C16.5313 5.03992 15.7461 4.58523 14.8977 4.26648L14.5297 2.27429C14.5019 2.12439 14.4292 1.98649 14.3212 1.8789C14.2132 1.77131 14.075 1.69913 13.925 1.67195L13.8617 1.66023C12.6406 1.43992 11.3563 1.43992 10.1352 1.66023L10.0719 1.67195C9.92187 1.69913 9.78368 1.77131 9.67568 1.8789C9.56767 1.98649 9.49495 2.12439 9.46719 2.27429L9.09688 4.27585C8.25521 4.59467 7.47141 5.04912 6.77657 5.62117L4.85704 4.93914C4.71352 4.88838 4.55795 4.88249 4.41101 4.92226C4.26407 4.96203 4.1327 5.04558 4.03438 5.16179L3.99219 5.21101C3.18066 6.16755 2.54792 7.26235 2.12422 8.44304L2.10313 8.50398C1.99766 8.79695 2.08438 9.12507 2.3211 9.32898L3.875 10.6555C3.80235 11.0962 3.76719 11.5462 3.76719 11.9938C3.76719 12.4438 3.80235 12.8938 3.875 13.3321L2.3211 14.6587C2.20531 14.7578 2.12243 14.8898 2.0835 15.0372C2.04456 15.1846 2.05141 15.3403 2.10313 15.4837L2.12422 15.5446C2.54844 16.7259 3.17657 17.8157 3.99219 18.7766L4.03438 18.8259C4.13294 18.9417 4.26431 19.0251 4.41117 19.0648C4.55802 19.1046 4.71347 19.0989 4.85704 19.0485L6.77657 18.3665C7.47501 18.9407 8.25547 19.3954 9.09688 19.7118L9.46719 21.7134C9.49495 21.8633 9.56767 22.0012 9.67568 22.1088C9.78368 22.2163 9.92187 22.2885 10.0719 22.3157L10.1352 22.3274C11.3675 22.5489 12.6294 22.5489 13.8617 22.3274L13.925 22.3157C14.075 22.2885 14.2132 22.2163 14.3212 22.1088C14.4292 22.0012 14.5019 21.8633 14.5297 21.7134L14.8977 19.7212C15.7458 19.4033 16.5353 18.9471 17.2344 18.3712L19.1398 19.0485C19.2834 19.0993 19.4389 19.1052 19.5859 19.0654C19.7328 19.0256 19.8642 18.9421 19.9625 18.8259L20.0047 18.7766C20.8203 17.8134 21.4484 16.7259 21.8727 15.5446L21.8938 15.4837C21.9992 15.1954 21.9125 14.8673 21.6758 14.6634ZM18.4766 10.918C18.5352 11.2719 18.5656 11.6352 18.5656 11.9985C18.5656 12.3618 18.5352 12.7251 18.4766 13.079L18.3219 14.0188L20.0727 15.5165C19.8072 16.1279 19.4722 16.7068 19.0742 17.2415L16.8992 16.4704L16.1633 17.0751C15.6031 17.5344 14.9797 17.8954 14.3047 18.1485L13.4117 18.4837L12.9922 20.7571C12.3302 20.8321 11.6619 20.8321 11 20.7571L10.5805 18.479L9.69454 18.1391C9.02657 17.886 8.40547 17.5251 7.85 17.068L7.11407 16.461L4.925 17.2391C4.52657 16.7024 4.19375 16.1235 3.92657 15.5141L5.6961 14.0024L5.54376 13.0649C5.4875 12.7157 5.45704 12.3548 5.45704 11.9985C5.45704 11.6399 5.48516 11.2813 5.54376 10.9321L5.6961 9.9946L3.92657 8.48289C4.19141 7.87117 4.52657 7.2946 4.925 6.75789L7.11407 7.53601L7.85 6.92898C8.40547 6.47195 9.02657 6.11101 9.69454 5.85789L10.5828 5.52273L11.0023 3.2446C11.6609 3.1696 12.3336 3.1696 12.9945 3.2446L13.4141 5.51804L14.307 5.8532C14.9797 6.10632 15.6055 6.46726 16.1656 6.92664L16.9016 7.53132L19.0766 6.76023C19.475 7.29695 19.8078 7.87585 20.075 8.48523L18.3242 9.98289L18.4766 10.918ZM12.0008 7.63914C9.72266 7.63914 7.87579 9.48601 7.87579 11.7641C7.87579 14.0423 9.72266 15.8891 12.0008 15.8891C14.2789 15.8891 16.1258 14.0423 16.1258 11.7641C16.1258 9.48601 14.2789 7.63914 12.0008 7.63914ZM13.857 13.6204C13.6136 13.8646 13.3242 14.0582 13.0057 14.1901C12.6871 14.322 12.3456 14.3897 12.0008 14.3891C11.3 14.3891 10.6414 14.1149 10.1445 13.6204C9.90037 13.3769 9.70676 13.0876 9.57482 12.769C9.44289 12.4504 9.37525 12.1089 9.37579 11.7641C9.37579 11.0634 9.65 10.4048 10.1445 9.90789C10.6414 9.41101 11.3 9.13914 12.0008 9.13914C12.7016 9.13914 13.3602 9.41101 13.857 9.90789C14.1012 10.1514 14.2948 10.4407 14.4267 10.7593C14.5587 11.0778 14.6263 11.4193 14.6258 11.7641C14.6258 12.4649 14.3516 13.1235 13.857 13.6204Z" fill="#363636"/>
</svg>
