<svg width="24" height="24" viewBox="0 0 24 24" fill="none" xmlns="http://www.w3.org/2000/svg">
<path d="M16.5372 2.92734C16.5085 2.91289 16.4766 2.90604 16.4445 2.90747C16.4124 2.90889 16.3813 2.91854 16.354 2.93548C16.3267 2.95242 16.3042 2.97608 16.2887 3.00421C16.2732 3.03233 16.2651 3.06397 16.2653 3.09609V4.60078C16.2653 4.72969 16.3333 4.84922 16.4411 4.91953C16.9697 5.2522 17.4587 5.64376 17.8989 6.08672C18.6653 6.85547 19.2677 7.74844 19.6872 8.74219C20.1211 9.77093 20.3435 10.8765 20.3411 11.993C20.3411 13.1203 20.1208 14.2148 19.6872 15.2438C19.2682 16.2361 18.6609 17.1378 17.8989 17.8992C17.1395 18.6631 16.2383 19.2713 15.2458 19.6898C14.2193 20.1258 13.1247 20.3461 11.9997 20.3461C10.8747 20.3461 9.78019 20.1258 8.75363 19.6898C7.76114 19.2713 6.85991 18.6631 6.1005 17.8992C5.33855 17.1378 4.73128 16.2361 4.31222 15.2438C3.87835 14.215 3.65597 13.1095 3.65831 11.993C3.65831 10.8656 3.87863 9.77109 4.31222 8.74219C4.73175 7.74844 5.3341 6.85547 6.1005 6.08672C6.54581 5.64141 7.03331 5.25234 7.55831 4.91953C7.66847 4.85156 7.7341 4.72969 7.7341 4.60078V3.09375C7.7341 2.95312 7.58644 2.86406 7.46222 2.925C4.18331 4.575 1.9216 7.95234 1.87472 11.8664C1.8091 17.4633 6.38644 22.1133 11.981 22.125C17.5825 22.1367 22.1247 17.5945 22.1247 11.9906C22.1247 8.025 19.8513 4.59141 16.5372 2.92734ZM11.2497 13.125H12.7497C12.8528 13.125 12.9372 13.0406 12.9372 12.9375V2.0625C12.9372 1.95937 12.8528 1.875 12.7497 1.875H11.2497C11.1466 1.875 11.0622 1.95937 11.0622 2.0625V12.9375C11.0622 13.0406 11.1466 13.125 11.2497 13.125Z" fill="#CB3A31"/>
</svg>
