<svg width="36" height="44" viewBox="0 0 36 44" fill="none" xmlns="http://www.w3.org/2000/svg">
<path d="M7.47347 30.636V39H6.38147V35.208H2.12147V39H1.02947V30.636H2.12147V34.308H6.38147V30.636H7.47347ZM12.2061 39.108C11.5901 39.108 11.0301 38.968 10.5261 38.688C10.0301 38.408 9.63806 38.012 9.35006 37.5C9.07006 36.98 8.93006 36.38 8.93006 35.7C8.93006 35.028 9.07406 34.436 9.36206 33.924C9.65806 33.404 10.0581 33.008 10.5621 32.736C11.0661 32.456 11.6301 32.316 12.2541 32.316C12.8781 32.316 13.4421 32.456 13.9461 32.736C14.4501 33.008 14.8461 33.4 15.1341 33.912C15.4301 34.424 15.5781 35.02 15.5781 35.7C15.5781 36.38 15.4261 36.98 15.1221 37.5C14.8261 38.012 14.4221 38.408 13.9101 38.688C13.3981 38.968 12.8301 39.108 12.2061 39.108ZM12.2061 38.148C12.5981 38.148 12.9661 38.056 13.3101 37.872C13.6541 37.688 13.9301 37.412 14.1381 37.044C14.3541 36.676 14.4621 36.228 14.4621 35.7C14.4621 35.172 14.3581 34.724 14.1501 34.356C13.9421 33.988 13.6701 33.716 13.3341 33.54C12.9981 33.356 12.6341 33.264 12.2421 33.264C11.8421 33.264 11.4741 33.356 11.1381 33.54C10.8101 33.716 10.5461 33.988 10.3461 34.356C10.1461 34.724 10.0461 35.172 10.0461 35.7C10.0461 36.236 10.1421 36.688 10.3341 37.056C10.5341 37.424 10.7981 37.7 11.1261 37.884C11.4541 38.06 11.8141 38.148 12.2061 38.148ZM24.9218 32.304C25.4338 32.304 25.8898 32.412 26.2898 32.628C26.6898 32.836 27.0058 33.152 27.2378 33.576C27.4698 34 27.5858 34.516 27.5858 35.124V39H26.5058V35.28C26.5058 34.624 26.3418 34.124 26.0138 33.78C25.6938 33.428 25.2578 33.252 24.7058 33.252C24.1378 33.252 23.6858 33.436 23.3498 33.804C23.0138 34.164 22.8458 34.688 22.8458 35.376V39H21.7658V35.28C21.7658 34.624 21.6018 34.124 21.2738 33.78C20.9538 33.428 20.5178 33.252 19.9658 33.252C19.3978 33.252 18.9458 33.436 18.6098 33.804C18.2738 34.164 18.1058 34.688 18.1058 35.376V39H17.0138V32.424H18.1058V33.372C18.3218 33.028 18.6098 32.764 18.9698 32.58C19.3378 32.396 19.7418 32.304 20.1818 32.304C20.7338 32.304 21.2218 32.428 21.6458 32.676C22.0698 32.924 22.3858 33.288 22.5938 33.768C22.7778 33.304 23.0818 32.944 23.5058 32.688C23.9298 32.432 24.4018 32.304 24.9218 32.304ZM35.3771 35.46C35.3771 35.668 35.3651 35.888 35.3411 36.12H30.0851C30.1251 36.768 30.3451 37.276 30.7451 37.644C31.1531 38.004 31.6451 38.184 32.2211 38.184C32.6931 38.184 33.0851 38.076 33.3971 37.86C33.7171 37.636 33.9411 37.34 34.0691 36.972H35.2451C35.0691 37.604 34.7171 38.12 34.1891 38.52C33.6611 38.912 33.0051 39.108 32.2211 39.108C31.5971 39.108 31.0371 38.968 30.5411 38.688C30.0531 38.408 29.6691 38.012 29.3891 37.5C29.1091 36.98 28.9691 36.38 28.9691 35.7C28.9691 35.02 29.1051 34.424 29.3771 33.912C29.6491 33.4 30.0291 33.008 30.5171 32.736C31.0131 32.456 31.5811 32.316 32.2211 32.316C32.8451 32.316 33.3971 32.452 33.8771 32.724C34.3571 32.996 34.7251 33.372 34.9811 33.852C35.2451 34.324 35.3771 34.86 35.3771 35.46ZM34.2491 35.232C34.2491 34.816 34.1571 34.46 33.9731 34.164C33.7891 33.86 33.5371 33.632 33.2171 33.48C32.9051 33.32 32.5571 33.24 32.1731 33.24C31.6211 33.24 31.1491 33.416 30.7571 33.768C30.3731 34.12 30.1531 34.608 30.0971 35.232H34.2491Z" fill="#8E8E8E"/>
<path d="M28.1834 11.836L19.1271 2.78443L18.5201 2.1774C18.3818 2.04 18.1948 1.96289 17.9998 1.96289C17.8048 1.96289 17.6178 2.04 17.4795 2.1774L7.81621 11.836C7.67449 11.9772 7.56248 12.1453 7.4868 12.3305C7.41112 12.5156 7.37331 12.7141 7.37559 12.9141C7.38496 13.7391 8.07168 14.3977 8.89668 14.3977H9.89277V22.0313H26.1068V14.3977H27.124C27.5248 14.3977 27.9021 14.2407 28.1857 13.9571C28.3254 13.8179 28.436 13.6524 28.5113 13.4701C28.5865 13.2879 28.6248 13.0925 28.624 12.8954C28.624 12.4969 28.467 12.1196 28.1834 11.836V11.836ZM19.3123 20.3438H16.6873V15.5626H19.3123V20.3438ZM24.4193 12.7102V20.3438H20.8123V15.0001C20.8123 14.4821 20.3928 14.0626 19.8748 14.0626H16.1248C15.6068 14.0626 15.1873 14.4821 15.1873 15.0001V20.3438H11.5803V12.7102H9.33027L18.0021 4.04537L18.5436 4.58678L26.6717 12.7102H24.4193Z" fill="#8E8E8E"/>
</svg>
