<svg width="40" height="44" viewBox="0 0 40 44" fill="none" xmlns="http://www.w3.org/2000/svg">
<path d="M12.442 30.624L10.102 39H8.12197L6.54997 33.036L4.90597 39L2.93797 39.012L0.681969 30.624H2.48197L3.95797 37.128L5.66197 30.624H7.53397L9.14197 37.092L10.63 30.624H12.442ZM13.1069 35.652C13.1069 34.98 13.2389 34.384 13.5029 33.864C13.7749 33.344 14.1389 32.944 14.5949 32.664C15.0589 32.384 15.5749 32.244 16.1429 32.244C16.6389 32.244 17.0709 32.344 17.4389 32.544C17.8149 32.744 18.1149 32.996 18.3389 33.3V32.352H20.0309V39H18.3389V38.028C18.1229 38.34 17.8229 38.6 17.4389 38.808C17.0629 39.008 16.6269 39.108 16.1309 39.108C15.5709 39.108 15.0589 38.964 14.5949 38.676C14.1389 38.388 13.7749 37.984 13.5029 37.464C13.2389 36.936 13.1069 36.332 13.1069 35.652ZM18.3389 35.676C18.3389 35.268 18.2589 34.92 18.0989 34.632C17.9389 34.336 17.7229 34.112 17.4509 33.96C17.1789 33.8 16.8869 33.72 16.5749 33.72C16.2629 33.72 15.9749 33.796 15.7109 33.948C15.4469 34.1 15.2309 34.324 15.0629 34.62C14.9029 34.908 14.8229 35.252 14.8229 35.652C14.8229 36.052 14.9029 36.404 15.0629 36.708C15.2309 37.004 15.4469 37.232 15.7109 37.392C15.9829 37.552 16.2709 37.632 16.5749 37.632C16.8869 37.632 17.1789 37.556 17.4509 37.404C17.7229 37.244 17.9389 37.02 18.0989 36.732C18.2589 36.436 18.3389 36.084 18.3389 35.676ZM23.3518 30.12V39H21.6718V30.12H23.3518ZM26.6916 30.12V39H25.0116V30.12H26.6916ZM34.5314 35.532C34.5314 35.772 34.5154 35.988 34.4834 36.18H29.6234C29.6634 36.66 29.8314 37.036 30.1274 37.308C30.4234 37.58 30.7874 37.716 31.2194 37.716C31.8434 37.716 32.2874 37.448 32.5514 36.912H34.3634C34.1714 37.552 33.8034 38.08 33.2594 38.496C32.7154 38.904 32.0474 39.108 31.2554 39.108C30.6154 39.108 30.0394 38.968 29.5274 38.688C29.0234 38.4 28.6274 37.996 28.3394 37.476C28.0594 36.956 27.9194 36.356 27.9194 35.676C27.9194 34.988 28.0594 34.384 28.3394 33.864C28.6194 33.344 29.0114 32.944 29.5154 32.664C30.0194 32.384 30.5994 32.244 31.2554 32.244C31.8874 32.244 32.4514 32.38 32.9474 32.652C33.4514 32.924 33.8394 33.312 34.1114 33.816C34.3914 34.312 34.5314 34.884 34.5314 35.532ZM32.7914 35.052C32.7834 34.62 32.6274 34.276 32.3234 34.02C32.0194 33.756 31.6474 33.624 31.2074 33.624C30.7914 33.624 30.4394 33.752 30.1514 34.008C29.8714 34.256 29.6994 34.604 29.6354 35.052H32.7914ZM37.7137 33.732V36.948C37.7137 37.172 37.7657 37.336 37.8697 37.44C37.9817 37.536 38.1657 37.584 38.4217 37.584H39.2017V39H38.1457C36.7297 39 36.0217 38.312 36.0217 36.936V33.732H35.2297V32.352H36.0217V30.708H37.7137V32.352H39.2017V33.732H37.7137Z" fill="#0594C2"/>
<path d="M28.625 2.625H11.375C10.9602 2.625 10.625 2.96016 10.625 3.375V20.625C10.625 21.0398 10.9602 21.375 11.375 21.375H28.625C29.0398 21.375 29.375 21.0398 29.375 20.625V3.375C29.375 2.96016 29.0398 2.625 28.625 2.625ZM27.6875 13.5H20.375V10.5H27.6875V13.5ZM27.6875 19.6875H12.3125V4.3125H27.6875V9H19.625C19.2102 9 18.875 9.33516 18.875 9.75V14.25C18.875 14.6648 19.2102 15 19.625 15H27.6875V19.6875ZM21.5938 12C21.5938 12.2486 21.6925 12.4871 21.8683 12.6629C22.0442 12.8387 22.2826 12.9375 22.5312 12.9375C22.7799 12.9375 23.0183 12.8387 23.1942 12.6629C23.37 12.4871 23.4688 12.2486 23.4688 12C23.4688 11.7514 23.37 11.5129 23.1942 11.3371C23.0183 11.1613 22.7799 11.0625 22.5312 11.0625C22.2826 11.0625 22.0442 11.1613 21.8683 11.3371C21.6925 11.5129 21.5938 11.7514 21.5938 12Z" fill="#0594C2"/>
</svg>
