<svg width="51" height="44" viewBox="0 0 51 44" fill="none" xmlns="http://www.w3.org/2000/svg">
<path d="M6.33675 37.14H2.68875L2.01675 39H0.86475L3.88875 30.684H5.14875L8.16075 39H7.00875L6.33675 37.14ZM6.02475 36.252L4.51275 32.028L3.00075 36.252H6.02475ZM9.07069 35.7C9.07069 35.02 9.20669 34.428 9.47869 33.924C9.75069 33.412 10.1267 33.016 10.6067 32.736C11.0947 32.456 11.6507 32.316 12.2747 32.316C13.0827 32.316 13.7467 32.512 14.2667 32.904C14.7947 33.296 15.1427 33.84 15.3107 34.536H14.1347C14.0227 34.136 13.8027 33.82 13.4747 33.588C13.1547 33.356 12.7547 33.24 12.2747 33.24C11.6507 33.24 11.1467 33.456 10.7627 33.888C10.3787 34.312 10.1867 34.916 10.1867 35.7C10.1867 36.492 10.3787 37.104 10.7627 37.536C11.1467 37.968 11.6507 38.184 12.2747 38.184C12.7547 38.184 13.1547 38.072 13.4747 37.848C13.7947 37.624 14.0147 37.304 14.1347 36.888H15.3107C15.1347 37.56 14.7827 38.1 14.2547 38.508C13.7267 38.908 13.0667 39.108 12.2747 39.108C11.6507 39.108 11.0947 38.968 10.6067 38.688C10.1267 38.408 9.75069 38.012 9.47869 37.5C9.20669 36.988 9.07069 36.388 9.07069 35.7ZM16.3598 35.7C16.3598 35.02 16.4958 34.428 16.7678 33.924C17.0398 33.412 17.4158 33.016 17.8958 32.736C18.3838 32.456 18.9398 32.316 19.5638 32.316C20.3718 32.316 21.0358 32.512 21.5558 32.904C22.0838 33.296 22.4318 33.84 22.5998 34.536H21.4238C21.3118 34.136 21.0918 33.82 20.7638 33.588C20.4438 33.356 20.0438 33.24 19.5638 33.24C18.9398 33.24 18.4358 33.456 18.0518 33.888C17.6678 34.312 17.4758 34.916 17.4758 35.7C17.4758 36.492 17.6678 37.104 18.0518 37.536C18.4358 37.968 18.9398 38.184 19.5638 38.184C20.0438 38.184 20.4438 38.072 20.7638 37.848C21.0838 37.624 21.3038 37.304 21.4238 36.888H22.5998C22.4238 37.56 22.0718 38.1 21.5438 38.508C21.0158 38.908 20.3558 39.108 19.5638 39.108C18.9398 39.108 18.3838 38.968 17.8958 38.688C17.4158 38.408 17.0398 38.012 16.7678 37.5C16.4958 36.988 16.3598 36.388 16.3598 35.7ZM26.9248 39.108C26.3088 39.108 25.7488 38.968 25.2448 38.688C24.7488 38.408 24.3568 38.012 24.0688 37.5C23.7888 36.98 23.6488 36.38 23.6488 35.7C23.6488 35.028 23.7928 34.436 24.0808 33.924C24.3768 33.404 24.7768 33.008 25.2808 32.736C25.7848 32.456 26.3488 32.316 26.9728 32.316C27.5968 32.316 28.1608 32.456 28.6648 32.736C29.1688 33.008 29.5648 33.4 29.8528 33.912C30.1488 34.424 30.2968 35.02 30.2968 35.7C30.2968 36.38 30.1448 36.98 29.8408 37.5C29.5448 38.012 29.1408 38.408 28.6288 38.688C28.1168 38.968 27.5488 39.108 26.9248 39.108ZM26.9248 38.148C27.3168 38.148 27.6848 38.056 28.0288 37.872C28.3728 37.688 28.6488 37.412 28.8568 37.044C29.0728 36.676 29.1808 36.228 29.1808 35.7C29.1808 35.172 29.0768 34.724 28.8688 34.356C28.6608 33.988 28.3888 33.716 28.0528 33.54C27.7168 33.356 27.3528 33.264 26.9608 33.264C26.5608 33.264 26.1928 33.356 25.8568 33.54C25.5288 33.716 25.2648 33.988 25.0648 34.356C24.8648 34.724 24.7648 35.172 24.7648 35.7C24.7648 36.236 24.8608 36.688 25.0528 37.056C25.2528 37.424 25.5168 37.7 25.8448 37.884C26.1728 38.06 26.5328 38.148 26.9248 38.148ZM37.5646 32.424V39H36.4726V38.028C36.2646 38.364 35.9726 38.628 35.5966 38.82C35.2286 39.004 34.8206 39.096 34.3726 39.096C33.8606 39.096 33.4006 38.992 32.9926 38.784C32.5846 38.568 32.2606 38.248 32.0206 37.824C31.7886 37.4 31.6726 36.884 31.6726 36.276V32.424H32.7526V36.132C32.7526 36.78 32.9166 37.28 33.2446 37.632C33.5726 37.976 34.0206 38.148 34.5886 38.148C35.1726 38.148 35.6326 37.968 35.9686 37.608C36.3046 37.248 36.4726 36.724 36.4726 36.036V32.424H37.5646ZM42.6124 32.304C43.4124 32.304 44.0604 32.548 44.5564 33.036C45.0524 33.516 45.3004 34.212 45.3004 35.124V39H44.2204V35.28C44.2204 34.624 44.0564 34.124 43.7284 33.78C43.4004 33.428 42.9524 33.252 42.3844 33.252C41.8084 33.252 41.3484 33.432 41.0044 33.792C40.6684 34.152 40.5004 34.676 40.5004 35.364V39H39.4084V32.424H40.5004V33.36C40.7164 33.024 41.0084 32.764 41.3764 32.58C41.7524 32.396 42.1644 32.304 42.6124 32.304ZM48.4162 33.324V37.2C48.4162 37.52 48.4842 37.748 48.6202 37.884C48.7562 38.012 48.9922 38.076 49.3282 38.076H50.1322V39H49.1482C48.5402 39 48.0842 38.86 47.7802 38.58C47.4762 38.3 47.3242 37.84 47.3242 37.2V33.324H46.4722V32.424H47.3242V30.768H48.4162V32.424H50.1322V33.324H48.4162Z" fill="#8E8E8E"/>
<path d="M33.1207 17.8969C32.6785 16.8496 32.0369 15.8984 31.2316 15.0961C30.4287 14.2915 29.4776 13.65 28.4308 13.207C28.4214 13.2023 28.4121 13.2 28.4027 13.1953C29.8629 12.1406 30.8121 10.4227 30.8121 8.48438C30.8121 5.27344 28.2105 2.67188 24.9996 2.67188C21.7886 2.67188 19.1871 5.27344 19.1871 8.48438C19.1871 10.4227 20.1363 12.1406 21.5964 13.1977C21.5871 13.2023 21.5777 13.2047 21.5683 13.2094C20.5183 13.6523 19.5761 14.2875 18.7675 15.0984C17.963 15.9013 17.3215 16.8524 16.8785 17.8992C16.4433 18.924 16.2086 20.0228 16.1871 21.1359C16.1864 21.161 16.1908 21.1858 16.2 21.2091C16.2091 21.2324 16.2228 21.2537 16.2403 21.2716C16.2578 21.2895 16.2787 21.3037 16.3017 21.3134C16.3248 21.3231 16.3495 21.3281 16.3746 21.3281H17.7808C17.8839 21.3281 17.966 21.2461 17.9683 21.1453C18.0152 19.3359 18.7418 17.6414 20.0261 16.357C21.355 15.0281 23.1199 14.2969 24.9996 14.2969C26.8793 14.2969 28.6441 15.0281 29.973 16.357C31.2574 17.6414 31.9839 19.3359 32.0308 21.1453C32.0332 21.2484 32.1152 21.3281 32.2183 21.3281H33.6246C33.6496 21.3281 33.6744 21.3231 33.6974 21.3134C33.7205 21.3037 33.7414 21.2895 33.7588 21.2716C33.7763 21.2537 33.79 21.2324 33.7992 21.2091C33.8083 21.1858 33.8127 21.161 33.8121 21.1359C33.7886 20.0156 33.5566 18.9258 33.1207 17.8969V17.8969ZM24.9996 12.5156C23.9238 12.5156 22.9113 12.0961 22.1496 11.3344C21.3879 10.5727 20.9683 9.56016 20.9683 8.48438C20.9683 7.40859 21.3879 6.39609 22.1496 5.63437C22.9113 4.87266 23.9238 4.45312 24.9996 4.45312C26.0754 4.45312 27.0879 4.87266 27.8496 5.63437C28.6113 6.39609 29.0308 7.40859 29.0308 8.48438C29.0308 9.56016 28.6113 10.5727 27.8496 11.3344C27.0879 12.0961 26.0754 12.5156 24.9996 12.5156Z" fill="#8E8E8E"/>
</svg>
