<svg width="37" height="44" viewBox="0 0 37 44" fill="none" xmlns="http://www.w3.org/2000/svg">
<path d="M8.15881 30.624V39H6.47881V35.436H2.89081V39H1.21081V30.624H2.89081V34.068H6.47881V30.624H8.15881ZM12.7644 39.108C12.1244 39.108 11.5484 38.968 11.0364 38.688C10.5244 38.4 10.1204 37.996 9.82438 37.476C9.53638 36.956 9.39238 36.356 9.39238 35.676C9.39238 34.996 9.54038 34.396 9.83638 33.876C10.1404 33.356 10.5524 32.956 11.0724 32.676C11.5924 32.388 12.1724 32.244 12.8124 32.244C13.4524 32.244 14.0324 32.388 14.5524 32.676C15.0724 32.956 15.4804 33.356 15.7764 33.876C16.0804 34.396 16.2324 34.996 16.2324 35.676C16.2324 36.356 16.0764 36.956 15.7644 37.476C15.4604 37.996 15.0444 38.4 14.5164 38.688C13.9964 38.968 13.4124 39.108 12.7644 39.108ZM12.7644 37.644C13.0684 37.644 13.3524 37.572 13.6164 37.428C13.8884 37.276 14.1044 37.052 14.2644 36.756C14.4244 36.46 14.5044 36.1 14.5044 35.676C14.5044 35.044 14.3364 34.56 14.0004 34.224C13.6724 33.88 13.2684 33.708 12.7884 33.708C12.3084 33.708 11.9044 33.88 11.5764 34.224C11.2564 34.56 11.0964 35.044 11.0964 35.676C11.0964 36.308 11.2524 36.796 11.5644 37.14C11.8844 37.476 12.2844 37.644 12.7644 37.644ZM25.7207 32.256C26.5367 32.256 27.1927 32.508 27.6887 33.012C28.1927 33.508 28.4447 34.204 28.4447 35.1V39H26.7647V35.328C26.7647 34.808 26.6327 34.412 26.3687 34.14C26.1047 33.86 25.7447 33.72 25.2887 33.72C24.8327 33.72 24.4687 33.86 24.1967 34.14C23.9327 34.412 23.8007 34.808 23.8007 35.328V39H22.1207V35.328C22.1207 34.808 21.9887 34.412 21.7247 34.14C21.4607 33.86 21.1007 33.72 20.6447 33.72C20.1807 33.72 19.8127 33.86 19.5407 34.14C19.2767 34.412 19.1447 34.808 19.1447 35.328V39H17.4647V32.352H19.1447V33.156C19.3607 32.876 19.6367 32.656 19.9727 32.496C20.3167 32.336 20.6927 32.256 21.1007 32.256C21.6207 32.256 22.0847 32.368 22.4927 32.592C22.9007 32.808 23.2167 33.12 23.4407 33.528C23.6567 33.144 23.9687 32.836 24.3767 32.604C24.7927 32.372 25.2407 32.256 25.7207 32.256ZM36.2189 35.532C36.2189 35.772 36.2029 35.988 36.1709 36.18H31.3109C31.3509 36.66 31.5189 37.036 31.8149 37.308C32.1109 37.58 32.4749 37.716 32.9069 37.716C33.5309 37.716 33.9749 37.448 34.2389 36.912H36.0509C35.8589 37.552 35.4909 38.08 34.9469 38.496C34.4029 38.904 33.7349 39.108 32.9429 39.108C32.3029 39.108 31.7269 38.968 31.2149 38.688C30.7109 38.4 30.3149 37.996 30.0269 37.476C29.7469 36.956 29.6069 36.356 29.6069 35.676C29.6069 34.988 29.7469 34.384 30.0269 33.864C30.3069 33.344 30.6989 32.944 31.2029 32.664C31.7069 32.384 32.2869 32.244 32.9429 32.244C33.5749 32.244 34.1389 32.38 34.6349 32.652C35.1389 32.924 35.5269 33.312 35.7989 33.816C36.0789 34.312 36.2189 34.884 36.2189 35.532ZM34.4789 35.052C34.4709 34.62 34.3149 34.276 34.0109 34.02C33.7069 33.756 33.3349 33.624 32.8949 33.624C32.4789 33.624 32.1269 33.752 31.8389 34.008C31.5589 34.256 31.3869 34.604 31.3229 35.052H34.4789Z" fill="#0594C2"/>
<path d="M28.1834 11.836L19.1271 2.78443L18.5201 2.1774C18.3818 2.04 18.1948 1.96289 17.9998 1.96289C17.8048 1.96289 17.6178 2.04 17.4795 2.1774L7.81621 11.836C7.67449 11.9772 7.56248 12.1453 7.4868 12.3305C7.41112 12.5156 7.37331 12.7141 7.37559 12.9141C7.38496 13.7391 8.07168 14.3977 8.89668 14.3977H9.89277V22.0313H26.1068V14.3977H27.124C27.5248 14.3977 27.9021 14.2407 28.1857 13.9571C28.3254 13.8179 28.436 13.6524 28.5113 13.4701C28.5865 13.2879 28.6248 13.0925 28.624 12.8954C28.624 12.4969 28.467 12.1196 28.1834 11.836V11.836ZM19.3123 20.3438H16.6873V15.5626H19.3123V20.3438ZM24.4193 12.7102V20.3438H20.8123V15.0001C20.8123 14.4821 20.3928 14.0626 19.8748 14.0626H16.1248C15.6068 14.0626 15.1873 14.4821 15.1873 15.0001V20.3438H11.5803V12.7102H9.33027L18.0021 4.04537L18.5436 4.58678L26.6717 12.7102H24.4193Z" fill="#0594C2"/>
</svg>
