<svg width="38" height="44" viewBox="0 0 38 44" fill="none" xmlns="http://www.w3.org/2000/svg">
<path d="M11.6684 30.636L9.24442 39H8.02042L6.07642 32.268L4.06042 39L2.84842 39.012L0.508422 30.636H1.67242L3.49642 37.728L5.51242 30.636H6.73642L8.65642 37.704L10.4924 30.636H11.6684ZM12.4555 35.688C12.4555 35.016 12.5915 34.428 12.8635 33.924C13.1355 33.412 13.5075 33.016 13.9795 32.736C14.4595 32.456 14.9915 32.316 15.5755 32.316C16.1515 32.316 16.6515 32.44 17.0755 32.688C17.4995 32.936 17.8155 33.248 18.0235 33.624V32.424H19.1275V39H18.0235V37.776C17.8075 38.16 17.4835 38.48 17.0515 38.736C16.6275 38.984 16.1315 39.108 15.5635 39.108C14.9795 39.108 14.4515 38.964 13.9795 38.676C13.5075 38.388 13.1355 37.984 12.8635 37.464C12.5915 36.944 12.4555 36.352 12.4555 35.688ZM18.0235 35.7C18.0235 35.204 17.9235 34.772 17.7235 34.404C17.5235 34.036 17.2515 33.756 16.9075 33.564C16.5715 33.364 16.1995 33.264 15.7915 33.264C15.3835 33.264 15.0115 33.36 14.6755 33.552C14.3395 33.744 14.0715 34.024 13.8715 34.392C13.6715 34.76 13.5715 35.192 13.5715 35.688C13.5715 36.192 13.6715 36.632 13.8715 37.008C14.0715 37.376 14.3395 37.66 14.6755 37.86C15.0115 38.052 15.3835 38.148 15.7915 38.148C16.1995 38.148 16.5715 38.052 16.9075 37.86C17.2515 37.66 17.5235 37.376 17.7235 37.008C17.9235 36.632 18.0235 36.196 18.0235 35.7ZM22.0648 30.12V39H20.9728V30.12H22.0648ZM25.018 30.12V39H23.926V30.12H25.018ZM32.8791 35.46C32.8791 35.668 32.8671 35.888 32.8431 36.12H27.5871C27.6271 36.768 27.8471 37.276 28.2471 37.644C28.6551 38.004 29.1471 38.184 29.7231 38.184C30.1951 38.184 30.5871 38.076 30.8991 37.86C31.2191 37.636 31.4431 37.34 31.5711 36.972H32.7471C32.5711 37.604 32.2191 38.12 31.6911 38.52C31.1631 38.912 30.5071 39.108 29.7231 39.108C29.0991 39.108 28.5391 38.968 28.0431 38.688C27.5551 38.408 27.1711 38.012 26.8911 37.5C26.6111 36.98 26.4711 36.38 26.4711 35.7C26.4711 35.02 26.6071 34.424 26.8791 33.912C27.1511 33.4 27.5311 33.008 28.0191 32.736C28.5151 32.456 29.0831 32.316 29.7231 32.316C30.3471 32.316 30.8991 32.452 31.3791 32.724C31.8591 32.996 32.2271 33.372 32.4831 33.852C32.7471 34.324 32.8791 34.86 32.8791 35.46ZM31.7511 35.232C31.7511 34.816 31.6591 34.46 31.4751 34.164C31.2911 33.86 31.0391 33.632 30.7191 33.48C30.4071 33.32 30.0591 33.24 29.6751 33.24C29.1231 33.24 28.6511 33.416 28.2591 33.768C27.8751 34.12 27.6551 34.608 27.5991 35.232H31.7511ZM35.6525 33.324V37.2C35.6525 37.52 35.7205 37.748 35.8565 37.884C35.9925 38.012 36.2285 38.076 36.5645 38.076H37.3685V39H36.3845C35.7765 39 35.3205 38.86 35.0165 38.58C34.7125 38.3 34.5605 37.84 34.5605 37.2V33.324H33.7085V32.424H34.5605V30.768H35.6525V32.424H37.3685V33.324H35.6525Z" fill="#8E8E8E"/>
<path d="M27.625 2.625H10.375C9.96016 2.625 9.625 2.96016 9.625 3.375V20.625C9.625 21.0398 9.96016 21.375 10.375 21.375H27.625C28.0398 21.375 28.375 21.0398 28.375 20.625V3.375C28.375 2.96016 28.0398 2.625 27.625 2.625ZM26.6875 13.5H19.375V10.5H26.6875V13.5ZM26.6875 19.6875H11.3125V4.3125H26.6875V9H18.625C18.2102 9 17.875 9.33516 17.875 9.75V14.25C17.875 14.6648 18.2102 15 18.625 15H26.6875V19.6875ZM20.5938 12C20.5938 12.2486 20.6925 12.4871 20.8683 12.6629C21.0442 12.8387 21.2826 12.9375 21.5312 12.9375C21.7799 12.9375 22.0183 12.8387 22.1942 12.6629C22.37 12.4871 22.4688 12.2486 22.4688 12C22.4688 11.7514 22.37 11.5129 22.1942 11.3371C22.0183 11.1613 21.7799 11.0625 21.5312 11.0625C21.2826 11.0625 21.0442 11.1613 20.8683 11.3371C20.6925 11.5129 20.5938 11.7514 20.5938 12Z" fill="#8E8E8E"/>
</svg>
