<svg width="52" height="44" viewBox="0 0 52 44" fill="none" xmlns="http://www.w3.org/2000/svg">
<path d="M6.36439 37.404H3.02839L2.47639 39H0.712391L3.72439 30.612H5.68039L8.69239 39H6.91639L6.36439 37.404ZM5.90839 36.06L4.69639 32.556L3.48439 36.06H5.90839ZM9.38623 35.676C9.38623 34.988 9.52623 34.388 9.80623 33.876C10.0862 33.356 10.4742 32.956 10.9702 32.676C11.4662 32.388 12.0342 32.244 12.6742 32.244C13.4982 32.244 14.1782 32.452 14.7142 32.868C15.2582 33.276 15.6222 33.852 15.8062 34.596H13.9942C13.8982 34.308 13.7342 34.084 13.5022 33.924C13.2782 33.756 12.9982 33.672 12.6622 33.672C12.1822 33.672 11.8022 33.848 11.5222 34.2C11.2422 34.544 11.1022 35.036 11.1022 35.676C11.1022 36.308 11.2422 36.8 11.5222 37.152C11.8022 37.496 12.1822 37.668 12.6622 37.668C13.3422 37.668 13.7862 37.364 13.9942 36.756H15.8062C15.6222 37.476 15.2582 38.048 14.7142 38.472C14.1702 38.896 13.4902 39.108 12.6742 39.108C12.0342 39.108 11.4662 38.968 10.9702 38.688C10.4742 38.4 10.0862 38 9.80623 37.488C9.52623 36.968 9.38623 36.364 9.38623 35.676ZM16.605 35.676C16.605 34.988 16.745 34.388 17.025 33.876C17.305 33.356 17.693 32.956 18.189 32.676C18.685 32.388 19.253 32.244 19.893 32.244C20.717 32.244 21.397 32.452 21.933 32.868C22.477 33.276 22.841 33.852 23.025 34.596H21.213C21.117 34.308 20.953 34.084 20.721 33.924C20.497 33.756 20.217 33.672 19.881 33.672C19.401 33.672 19.021 33.848 18.741 34.2C18.461 34.544 18.321 35.036 18.321 35.676C18.321 36.308 18.461 36.8 18.741 37.152C19.021 37.496 19.401 37.668 19.881 37.668C20.561 37.668 21.005 37.364 21.213 36.756H23.025C22.841 37.476 22.477 38.048 21.933 38.472C21.389 38.896 20.709 39.108 19.893 39.108C19.253 39.108 18.685 38.968 18.189 38.688C17.693 38.4 17.305 38 17.025 37.488C16.745 36.968 16.605 36.364 16.605 35.676ZM27.2077 39.108C26.5677 39.108 25.9917 38.968 25.4797 38.688C24.9677 38.4 24.5637 37.996 24.2677 37.476C23.9797 36.956 23.8357 36.356 23.8357 35.676C23.8357 34.996 23.9837 34.396 24.2797 33.876C24.5837 33.356 24.9957 32.956 25.5157 32.676C26.0357 32.388 26.6157 32.244 27.2557 32.244C27.8957 32.244 28.4757 32.388 28.9957 32.676C29.5157 32.956 29.9237 33.356 30.2197 33.876C30.5237 34.396 30.6757 34.996 30.6757 35.676C30.6757 36.356 30.5197 36.956 30.2077 37.476C29.9037 37.996 29.4877 38.4 28.9597 38.688C28.4397 38.968 27.8557 39.108 27.2077 39.108ZM27.2077 37.644C27.5117 37.644 27.7957 37.572 28.0597 37.428C28.3317 37.276 28.5477 37.052 28.7077 36.756C28.8677 36.46 28.9477 36.1 28.9477 35.676C28.9477 35.044 28.7797 34.56 28.4437 34.224C28.1157 33.88 27.7117 33.708 27.2317 33.708C26.7517 33.708 26.3477 33.88 26.0197 34.224C25.6997 34.56 25.5397 35.044 25.5397 35.676C25.5397 36.308 25.6957 36.796 26.0077 37.14C26.3277 37.476 26.7277 37.644 27.2077 37.644ZM38.1841 32.352V39H36.4921V38.16C36.2761 38.448 35.9921 38.676 35.6401 38.844C35.2961 39.004 34.9201 39.084 34.5121 39.084C33.9921 39.084 33.5321 38.976 33.1321 38.76C32.7321 38.536 32.4161 38.212 32.1841 37.788C31.9601 37.356 31.8481 36.844 31.8481 36.252V32.352H33.5281V36.012C33.5281 36.54 33.6601 36.948 33.9241 37.236C34.1881 37.516 34.5481 37.656 35.0041 37.656C35.4681 37.656 35.8321 37.516 36.0961 37.236C36.3601 36.948 36.4921 36.54 36.4921 36.012V32.352H38.1841ZM43.5257 32.256C44.3177 32.256 44.9577 32.508 45.4457 33.012C45.9337 33.508 46.1777 34.204 46.1777 35.1V39H44.4977V35.328C44.4977 34.8 44.3657 34.396 44.1017 34.116C43.8377 33.828 43.4777 33.684 43.0217 33.684C42.5577 33.684 42.1897 33.828 41.9177 34.116C41.6537 34.396 41.5217 34.8 41.5217 35.328V39H39.8417V32.352H41.5217V33.18C41.7457 32.892 42.0297 32.668 42.3737 32.508C42.7257 32.34 43.1097 32.256 43.5257 32.256ZM49.7313 33.732V36.948C49.7313 37.172 49.7833 37.336 49.8873 37.44C49.9993 37.536 50.1833 37.584 50.4393 37.584H51.2193V39H50.1633C48.7473 39 48.0393 38.312 48.0393 36.936V33.732H47.2473V32.352H48.0393V30.708H49.7313V32.352H51.2193V33.732H49.7313Z" fill="#0594C2"/>
<path d="M34.1207 17.8969C33.6785 16.8496 33.0369 15.8984 32.2316 15.0961C31.4287 14.2915 30.4776 13.65 29.4308 13.207C29.4214 13.2023 29.4121 13.2 29.4027 13.1953C30.8629 12.1406 31.8121 10.4227 31.8121 8.48438C31.8121 5.27344 29.2105 2.67188 25.9996 2.67188C22.7886 2.67188 20.1871 5.27344 20.1871 8.48438C20.1871 10.4227 21.1363 12.1406 22.5964 13.1977C22.5871 13.2023 22.5777 13.2047 22.5683 13.2094C21.5183 13.6523 20.5761 14.2875 19.7675 15.0984C18.963 15.9013 18.3215 16.8524 17.8785 17.8992C17.4433 18.924 17.2086 20.0228 17.1871 21.1359C17.1864 21.161 17.1908 21.1858 17.2 21.2091C17.2091 21.2324 17.2228 21.2537 17.2403 21.2716C17.2578 21.2895 17.2787 21.3037 17.3017 21.3134C17.3248 21.3231 17.3495 21.3281 17.3746 21.3281H18.7808C18.8839 21.3281 18.966 21.2461 18.9683 21.1453C19.0152 19.3359 19.7418 17.6414 21.0261 16.357C22.355 15.0281 24.1199 14.2969 25.9996 14.2969C27.8793 14.2969 29.6441 15.0281 30.973 16.357C32.2574 17.6414 32.9839 19.3359 33.0308 21.1453C33.0332 21.2484 33.1152 21.3281 33.2183 21.3281H34.6246C34.6496 21.3281 34.6744 21.3231 34.6974 21.3134C34.7205 21.3037 34.7414 21.2895 34.7588 21.2716C34.7763 21.2537 34.79 21.2324 34.7992 21.2091C34.8083 21.1858 34.8127 21.161 34.8121 21.1359C34.7886 20.0156 34.5566 18.9258 34.1207 17.8969V17.8969ZM25.9996 12.5156C24.9238 12.5156 23.9113 12.0961 23.1496 11.3344C22.3879 10.5727 21.9683 9.56016 21.9683 8.48438C21.9683 7.40859 22.3879 6.39609 23.1496 5.63437C23.9113 4.87266 24.9238 4.45312 25.9996 4.45312C27.0754 4.45312 28.0879 4.87266 28.8496 5.63437C29.6113 6.39609 30.0308 7.40859 30.0308 8.48438C30.0308 9.56016 29.6113 10.5727 28.8496 11.3344C28.0879 12.0961 27.0754 12.5156 25.9996 12.5156Z" fill="#0594C2"/>
</svg>
